<svg width="7" height="8" viewBox="0 0 7 8" fill="none" xmlns="http://www.w3.org/2000/svg">
<path d="M0.595703 8V0.929688H3.4082C4.9707 0.929688 5.75195 1.68164 5.75195 2.74609C5.75195 3.57617 5.21484 4.09375 4.48242 4.25977V4.32812C5.2832 4.36719 6.03516 5.00195 6.03516 6.04688C6.03516 7.16992 5.19531 8 3.59375 8H0.595703ZM3.30078 6.78906C4.15039 6.78906 4.51172 6.4375 4.51172 5.91016C4.51172 5.31445 4.0625 4.89453 3.33984 4.89453H2.06055V6.78906H3.30078ZM3.19336 3.88867C3.80859 3.88867 4.26758 3.54688 4.26758 2.98047C4.26758 2.47266 3.89648 2.12109 3.22266 2.12109H2.06055V3.88867H3.19336Z" fill="#8E8E8E"/>
</svg>
