<svg width="11" height="21" viewBox="0 0 11 21" fill="none" xmlns="http://www.w3.org/2000/svg">
<path d="M10.7109 1.63012L2.25788 9.82848C2.07249 10.0074 1.96851 10.2488 1.96851 10.5004C1.96851 10.7521 2.07249 10.9935 2.25788 11.1724L10.709 19.3708C10.8943 19.5508 10.9982 19.793 10.9982 20.0454C10.9982 20.2977 10.8943 20.54 10.709 20.72C10.6185 20.8086 10.5103 20.879 10.3909 20.9271C10.2714 20.9752 10.143 21 10.0133 21C9.88366 21 9.7553 20.9752 9.63582 20.9271C9.51634 20.879 9.40815 20.8086 9.31763 20.72L0.866465 12.5234C0.311134 11.9835 0 11.2571 0 10.5004C0 9.74382 0.311134 9.01743 0.866465 8.47754L9.31763 0.280934C9.40818 0.192035 9.51648 0.121369 9.63613 0.0731153C9.75578 0.0248618 9.88436 0 10.0143 0C10.1441 0 10.2727 0.0248618 10.3924 0.0731153C10.512 0.121369 10.6203 0.192035 10.7109 0.280934C10.8962 0.460922 11 0.703177 11 0.955527C11 1.20788 10.8962 1.45013 10.7109 1.63012Z" fill="black"/>
</svg>
