<svg width="15" height="8" viewBox="0 0 15 8" fill="none" xmlns="http://www.w3.org/2000/svg">
<path d="M3.92285 8H0.330078V7.65723H1.3457V0.725586H0.330078V0.382812H3.92285V0.725586H2.90723V3.88672H6.34766V0.725586H5.33203V0.382812H8.91211V0.725586H7.90918V7.65723H8.58203C8.73438 7.67415 8.8444 7.78841 8.91211 8H5.33203V7.65723H6.34766V4.26758H2.90723V7.65723H3.58008C3.75781 7.67415 3.87207 7.78841 3.92285 8ZM12.1621 1.18262H13.1016V7.55566L14.2061 7.66992C14.2399 7.66992 14.2738 7.67415 14.3076 7.68262C14.4854 7.71647 14.5742 7.82227 14.5742 8H9.96582V7.66992L11.6162 7.55566V2.09668L9.7373 3.25195L9.50879 2.89648L12.1621 1.18262Z" fill="#8E8E8E"/>
</svg>
