<svg width="15" height="8" viewBox="0 0 15 8" fill="none" xmlns="http://www.w3.org/2000/svg">
<path d="M3.92285 8H0.330078V7.65723H1.3457V0.725586H0.330078V0.382812H3.92285V0.725586H2.90723V3.88672H6.34766V0.725586H5.33203V0.382812H8.91211V0.725586H7.90918V7.65723H8.58203C8.73438 7.67415 8.8444 7.78841 8.91211 8H5.33203V7.65723H6.34766V4.26758H2.90723V7.65723H3.58008C3.75781 7.67415 3.87207 7.78841 3.92285 8ZM10.3848 6.85742H13.292C13.4697 6.85742 13.6094 6.84896 13.7109 6.83203C13.9395 6.78125 14.1087 6.60352 14.2188 6.29883L14.4346 5.68945H14.7139L14.7012 8H9.63574V7.66992C9.63574 7.33138 9.69922 7.02246 9.82617 6.74316C10.0039 6.35384 10.389 5.97298 10.9814 5.60059C11.5993 5.21126 11.959 4.97852 12.0605 4.90234C12.7292 4.38607 13.0635 3.69206 13.0635 2.82031C13.0635 2.65104 13.0465 2.486 13.0127 2.3252C12.8773 1.70736 12.5176 1.39844 11.9336 1.39844C11.6966 1.39844 11.5146 1.45768 11.3877 1.57617C11.2438 1.70312 11.1549 1.99089 11.1211 2.43945C11.1126 2.64258 11.0999 2.79069 11.083 2.88379C10.9984 3.27311 10.7529 3.46777 10.3467 3.46777C10.2705 3.46777 10.1943 3.45508 10.1182 3.42969C9.81348 3.32812 9.66113 3.06999 9.66113 2.65527C9.66113 2.29134 9.79232 1.97819 10.0547 1.71582C10.4948 1.27572 11.1549 1.05566 12.0352 1.05566C12.4668 1.05566 12.8646 1.11491 13.2285 1.2334C14.1257 1.52116 14.5742 2.07975 14.5742 2.90918C14.5742 3.40007 14.3626 3.8571 13.9395 4.28027C13.6009 4.61035 12.9619 5.0166 12.0225 5.49902C11.7008 5.65983 11.4681 5.77832 11.3242 5.85449C10.6979 6.20996 10.3848 6.54427 10.3848 6.85742Z" fill="#8E8E8E"/>
</svg>
