<svg width="16" height="10" viewBox="0 0 16 10" fill="none" xmlns="http://www.w3.org/2000/svg">
<path d="M3.92285 8H0.330078V7.65723H1.3457V0.725586H0.330078V0.382812H3.92285V0.725586H2.90723V3.88672H6.34766V0.725586H5.33203V0.382812H8.91211V0.725586H7.90918V7.65723H8.58203C8.73438 7.67415 8.8444 7.78841 8.91211 8H5.33203V7.65723H6.34766V4.26758H2.90723V7.65723H3.58008C3.75781 7.67415 3.87207 7.78841 3.92285 8ZM15.082 1.5L12.1875 4.57227C12.4414 4.51302 12.7165 4.4834 13.0127 4.4834C13.5967 4.4834 14.0918 4.61035 14.498 4.86426C15.082 5.23665 15.374 5.77832 15.374 6.48926C15.374 7.02246 15.2048 7.50488 14.8662 7.93652C14.2907 8.65592 13.4274 9.01562 12.2764 9.01562C11.7601 9.01562 11.2946 8.93945 10.8799 8.78711C10.1266 8.49935 9.75 8.03809 9.75 7.40332C9.75 7.32715 9.75846 7.25098 9.77539 7.1748C9.86003 6.8278 10.1012 6.6543 10.499 6.6543C10.6937 6.6543 10.8503 6.70085 10.9688 6.79395C11.1042 6.91243 11.1888 7.18327 11.2227 7.60645C11.2396 7.81803 11.2607 7.97038 11.2861 8.06348C11.3792 8.47819 11.6628 8.68555 12.1367 8.68555C13.2708 8.65169 13.8633 7.97884 13.9141 6.66699C13.9141 6.39616 13.8844 6.14648 13.8252 5.91797C13.6305 5.23242 13.2158 4.88965 12.5811 4.88965C12.3018 4.88965 12.0098 4.95312 11.7051 5.08008L11.4004 4.82617L13.6221 2.26172H11.5908C11.4046 2.26172 11.2607 2.27018 11.1592 2.28711C10.9053 2.32943 10.7191 2.50293 10.6006 2.80762L10.3721 3.42969H10.0674L10.0928 1.18262H15.082V1.5Z" fill="#8E8E8E"/>
</svg>
