<svg width="16" height="9" viewBox="0 0 16 9" fill="none" xmlns="http://www.w3.org/2000/svg">
<path d="M3.92285 8H0.330078V7.65723H1.3457V0.725586H0.330078V0.382812H3.92285V0.725586H2.90723V3.88672H6.34766V0.725586H5.33203V0.382812H8.91211V0.725586H7.90918V7.65723H8.58203C8.73438 7.67415 8.8444 7.78841 8.91211 8H5.33203V7.65723H6.34766V4.26758H2.90723V7.65723H3.58008C3.75781 7.67415 3.87207 7.78841 3.92285 8ZM15.3232 8.85059H11.3623V8.50781H12.7842V6.89551L9.41992 6.88281L9.34375 6.50195C9.59766 6.29883 9.83887 6.09147 10.0674 5.87988C11.0915 4.90658 11.8151 3.80632 12.2383 2.5791C12.4668 1.91895 12.5895 1.56348 12.6064 1.5127C12.7757 1.18262 13.0423 1.01758 13.4062 1.01758C13.4909 1.01758 13.5671 1.02604 13.6348 1.04297C14.041 1.11914 14.2441 1.36035 14.2441 1.7666C14.2357 2.27441 13.7786 2.98958 12.873 3.91211C12.3991 4.38607 11.4131 5.24935 9.91504 6.50195L12.7842 6.51465V5.00391H12.9111C13.0465 5.00391 13.1608 4.99544 13.2539 4.97852C13.4993 4.92773 13.6686 4.74577 13.7617 4.43262L13.9268 3.89941H14.2061V6.52734H15.3232V6.9082H14.2061V8.50781H15.0186C15.0693 8.50781 15.1159 8.51204 15.1582 8.52051C15.2682 8.53743 15.3232 8.64746 15.3232 8.85059Z" fill="#8E8E8E"/>
</svg>
