<svg width="13" height="13" viewBox="0 0 13 13" fill="none" xmlns="http://www.w3.org/2000/svg">
<path d="M2.70833 11.375C2.41042 11.375 2.15547 11.269 1.9435 11.057C1.73153 10.8451 1.62536 10.5899 1.625 10.2917V2.70833C1.625 2.41042 1.73117 2.15547 1.9435 1.9435C2.15583 1.73153 2.41078 1.62536 2.70833 1.625H10.2917C10.5896 1.625 10.8447 1.73117 11.057 1.9435C11.2694 2.15583 11.3754 2.41078 11.375 2.70833V10.2917C11.375 10.5896 11.269 10.8447 11.057 11.057C10.8451 11.2694 10.5899 11.3754 10.2917 11.375H2.70833ZM3.25 9.20833H9.75L7.71875 6.5L6.09375 8.66667L4.875 7.04167L3.25 9.20833Z" fill="#858585"/>
</svg>
