<svg width="531" height="455" viewBox="0 0 531 455" fill="none" xmlns="http://www.w3.org/2000/svg">
<g clip-path="url(#clip0_672_796)">
<path d="M414.808 73.3629H378.729V381.112C378.729 385.94 377.778 390.721 375.931 395.182C374.084 399.643 371.377 403.696 367.965 407.111C364.552 410.525 360.501 413.233 356.042 415.081C351.584 416.929 346.805 417.88 341.979 417.88H66.1405V418.232C66.1405 423.06 67.0911 427.841 68.9379 432.302C70.7847 436.763 73.4917 440.817 76.9043 444.231C80.3168 447.645 84.368 450.353 88.8267 452.201C93.2854 454.049 98.0642 455 102.89 455H414.808C419.634 455 424.412 454.049 428.871 452.201C433.33 450.353 437.381 447.645 440.794 444.231C444.206 440.817 446.913 436.763 448.76 432.302C450.607 427.841 451.557 423.06 451.557 418.232V110.131C451.557 105.303 450.607 100.521 448.76 96.0605C446.913 91.5996 444.206 87.5463 440.794 84.132C437.381 80.7178 433.33 78.0094 428.871 76.1617C424.412 74.3139 419.634 73.3628 414.808 73.3629Z" fill="#B8E0B7"/>
<path d="M370.163 41.793H15.2538C6.82938 41.793 0 48.6259 0 57.0546V408.169C0 416.597 6.82938 423.43 15.2538 423.43H370.163C378.588 423.43 385.417 416.597 385.417 408.169V57.0546C385.417 48.6259 378.588 41.793 370.163 41.793Z" fill="#126D11"/>
<path d="M36.75 49.3543C29.0078 49.3543 21.5826 52.4315 16.1081 57.9088C10.6335 63.3862 7.55786 70.815 7.55786 78.5612V386.662C7.55786 394.408 10.6335 401.837 16.108 407.314C21.5826 412.792 29.0078 415.869 36.75 415.869H235.823C314.267 415.869 377.859 352.245 377.859 273.761V78.5612C377.859 70.815 374.783 63.3862 369.309 57.9088C363.834 52.4315 356.409 49.3543 348.667 49.3543H36.75Z" fill="white"/>
<path d="M393.851 256.122C392.257 256.564 390.586 256.654 388.953 256.386C387.32 256.118 385.765 255.499 384.395 254.571C383.025 253.642 381.873 252.427 381.019 251.01C380.164 249.592 379.628 248.006 379.446 246.361L324.94 229.892L325.786 213.688L390.382 233.722C393.172 233.622 395.903 234.55 398.055 236.331C400.208 238.111 401.633 240.619 402.061 243.38C402.489 246.141 401.889 248.963 400.376 251.312C398.863 253.66 396.541 255.371 393.851 256.122Z" fill="#FFB6B6"/>
<path d="M210.338 172.534C204.819 167.926 212.901 145.087 210.722 138.467C210.591 138.066 210.468 137.664 210.35 137.261C210.103 136.407 210.159 135.493 210.506 134.675L230.993 125.034C236.331 127.216 241.249 130.31 245.528 134.177L277.176 170.341L308.617 198.752L322.413 204.905L368.128 225.305L367.654 226.672L367.65 226.676L362.625 241.277L362.625 241.285L372.677 248.296L339.768 243.336L318.003 234.354L297.045 225.707C266.102 207.075 215.191 197.417 210.338 172.534Z" fill="#48AE46"/>
<path d="M356.198 340.129C355.594 340.404 354.92 340.487 354.267 340.366C353.615 340.245 353.015 339.926 352.55 339.453C352.084 338.979 351.776 338.374 351.665 337.719C351.555 337.065 351.649 336.392 351.933 335.792C351.889 335.46 351.856 335.222 351.811 334.891C351.758 334.836 351.704 334.781 351.651 334.727C346.242 329.237 336.886 333.042 336.791 340.75C336.706 347.591 335.961 354.709 337.682 361.216C338.444 364.092 339.698 366.814 341.39 369.261C330.676 359.076 322.275 346.706 316.758 332.988C315.377 329.544 314.19 326.025 313.201 322.449C312.394 319.516 311.717 316.554 311.17 313.563C308.222 297.325 309.166 280.62 313.925 264.818C317.537 260.44 319.722 255.059 320.184 249.401C320.356 247.364 320.234 245.313 319.819 243.312C319.325 243.589 314.696 236.221 314.894 235.576C313.725 234.764 312.204 234.737 310.979 233.978C304.886 230.205 299.821 233.322 299.896 241.738C295.057 247.234 297.033 252.338 302.712 255.731C306.326 257.89 308.336 261.966 311.747 264.46C311.643 264.82 311.527 265.174 311.423 265.534C309.529 272.128 308.285 278.892 307.71 285.729C305.989 279.092 301.75 271.965 297.753 267.877C293.201 263.219 286.979 260.254 281.224 256.957C274.312 252.996 265.917 259.3 268.054 266.977C268.074 267.052 268.095 267.126 268.116 267.2C268.812 267.293 269.504 267.41 270.191 267.552C271.057 267.734 271.847 268.174 272.458 268.814C273.069 269.454 273.473 270.263 273.617 271.136C273.761 272.009 273.637 272.906 273.263 273.708C272.889 274.51 272.282 275.18 271.52 275.63L271.442 275.676C272.464 277.641 273.633 279.526 274.941 281.313C277.635 302.24 290.982 304.904 306.214 299.157C306.616 299.194 307.009 299.235 307.408 299.264C307.797 308.548 309.391 317.741 312.15 326.614C313.794 331.841 315.858 336.928 318.322 341.823L318.224 341.653C314.872 336.456 309.83 332.575 303.949 330.667C295.246 327.911 285.202 329.638 276.406 328.145C272.172 327.426 268.893 331.864 271.066 335.57C271.101 335.629 271.135 335.688 271.17 335.747C272.395 335.754 273.618 335.837 274.833 335.996C275.529 336.089 276.22 336.207 276.908 336.348C277.773 336.531 278.563 336.971 279.175 337.61C279.786 338.25 280.19 339.059 280.334 339.933C280.477 340.806 280.354 341.702 279.98 342.504C279.606 343.306 278.998 343.976 278.237 344.427L278.159 344.473C278.102 344.505 278.054 344.535 277.998 344.567C281.519 348.144 285.629 351.087 290.147 353.269C299.842 368.593 313.632 364.886 325.78 354.421L325.788 354.418C330.023 360.514 334.88 366.154 340.28 371.245L364.136 361.68C364.116 361.38 364.083 361.076 364.054 360.779C361.901 361.804 359.631 362.561 357.295 363.033C358.194 360.15 359.087 357.25 359.987 354.368C360.01 354.311 360.03 354.253 360.046 354.195C360.499 352.723 360.963 351.256 361.415 349.784L361.415 349.782C360.098 346.354 358.344 343.109 356.199 340.129L356.198 340.129Z" fill="#B8E0B7"/>
<path d="M225.071 361.134L224.798 360.792C224.01 355.724 225.071 361.134 225.071 361.134Z" fill="#2F2E41"/>
<path d="M239.045 415.797H162.618C156.68 401.028 152.558 390.466 152.558 390.466C152.558 390.466 151.557 400.812 150.129 415.797H81.034C80.3873 375.075 79.482 333.264 79.184 319.985L211.808 322.941L224.999 339.678C225.044 339.957 225.089 340.266 225.145 340.614C225.68 344.015 232.86 380.519 239.045 415.797Z" fill="#2F2E41"/>
<path d="M237.887 129.391L237.874 129.367C237.453 128.584 236.774 127.97 235.953 127.629C227.562 121.115 218.374 118.146 208.063 120.177C206.375 115.064 204.801 115.064 204.801 115.064L182.437 107.674L179.22 88.0149L124.117 86.1489L119.109 110.681C119.109 110.681 88.3097 116.205 88.3097 120.2C88.3097 124.194 93.443 124.194 88.3097 124.194C83.1765 124.194 81.8019 119.629 77.3588 124.194C76.9781 124.578 76.5763 124.94 76.1553 125.279C76.104 125.324 76.0469 125.364 75.9956 125.41C70.9742 129.361 67.0281 134.514 64.5212 140.393C62.0142 146.272 61.0272 152.688 61.651 159.05L71.1247 253.338L81.2372 353.95L219.63 359.713L228.899 274.099L238.326 131.651C238.41 130.87 238.257 130.083 237.887 129.391Z" fill="#48AE46"/>
<path d="M10.7048 382.24C11.4949 384.229 12.2923 385.686 13.0968 386.407L281.498 386.977C282.303 386.257 283.1 384.8 283.89 382.811C293.278 359.182 275.569 333.56 250.155 333.511L44.4543 333.121C19.0746 333.072 1.32988 358.643 10.7048 382.24Z" fill="white"/>
<path d="M281.716 387.548L281.497 387.548L12.8783 386.977L12.7165 386.832C11.8799 386.082 11.0485 384.649 10.1749 382.451C7.95294 376.954 7.13338 370.99 7.79013 365.097C8.44687 359.204 10.5593 353.567 13.9368 348.695C17.3091 343.721 21.8472 339.649 27.1548 336.835C32.4623 334.021 38.3779 332.55 44.3847 332.55H44.4554L250.156 332.941C256.184 332.952 262.118 334.44 267.44 337.275C272.761 340.109 277.308 344.204 280.684 349.201C284.057 354.088 286.164 359.737 286.816 365.64C287.468 371.543 286.645 377.516 284.42 383.022C283.546 385.22 282.715 386.653 281.879 387.402L281.716 387.548ZM31.0296 385.783L258.612 385.093C274.676 385.044 286.493 369.529 281.733 354.179C281.283 352.643 280.612 351.182 279.739 349.841C276.468 344.998 272.061 341.03 266.904 338.283C261.747 335.536 255.996 334.094 250.154 334.082L44.4532 333.692H44.3847C41.7727 333.779 39.197 334.33 36.7777 335.319C23.4907 340.349 14.6058 352.994 13.8671 367.188C13.8577 367.369 13.8483 367.55 13.8389 367.73C13.7229 369.982 14.0513 372.235 14.8054 374.359C15.5594 376.484 16.7244 378.439 18.2337 380.113C19.743 381.787 21.5671 383.148 23.6019 384.117C25.6367 385.086 27.8423 385.644 30.0928 385.76C30.4048 385.776 30.717 385.784 31.0296 385.783Z" fill="#B8E0B7"/>
<path d="M333.697 180.588C330.758 168.236 331.248 156.07 336.282 144.15C336.335 143.412 336.678 142.726 337.236 142.242C337.795 141.757 338.522 141.514 339.259 141.566L366.764 143.518C367.501 143.571 368.187 143.915 368.672 144.473C369.156 145.032 369.399 145.76 369.347 146.497L366.763 182.936C366.71 183.673 366.367 184.359 365.808 184.844C365.25 185.328 364.523 185.571 363.786 185.52L336.28 183.567C335.543 183.514 334.857 183.171 334.373 182.612C333.889 182.054 333.646 181.326 333.697 180.588Z" fill="#126D11"/>
<path d="M336.588 169.732C334.235 163.645 335.739 155.274 338.249 146.306C338.299 145.616 338.62 144.973 339.143 144.519C339.666 144.065 340.347 143.838 341.038 143.886L364.676 145.564C365.366 145.614 366.009 145.935 366.462 146.459C366.916 146.982 367.143 147.663 367.095 148.354L364.796 180.779C364.746 181.47 364.424 182.112 363.901 182.566C363.379 183.02 362.697 183.248 362.007 183.199L347.363 182.16C344.289 181.938 341.427 180.505 339.407 178.175C337.387 175.845 336.373 172.809 336.588 169.732Z" fill="white"/>
<path d="M352.953 171.321C352.231 171.197 351.509 171.072 350.787 170.948C351.12 170.163 351.312 169.325 351.354 168.473C351.696 163.912 351.73 159.308 351.913 154.739C351.908 154.571 351.855 154.409 351.76 154.272C351.665 154.134 351.533 154.027 351.378 153.963C351.224 153.899 351.055 153.881 350.89 153.911C350.726 153.941 350.574 154.019 350.452 154.133C348.639 155.636 346.826 157.139 345.012 158.641C344.163 159.345 345.38 160.55 346.222 159.852C347.524 158.773 348.825 157.695 350.127 156.616C350.007 159.611 349.888 162.605 349.768 165.599C349.711 167.036 349.886 168.781 349.298 170.132C349.217 170.314 349.112 170.485 348.986 170.639C348.186 170.501 347.387 170.364 346.587 170.226C346.013 170.128 345.282 170.608 345.535 171.279C346.085 172.74 347.707 173.201 349.098 172.638C349.221 172.583 349.339 172.52 349.453 172.448L352.498 172.971C353.575 173.157 354.038 171.507 352.953 171.321Z" fill="#48AE46"/>
<path d="M493.399 303.278C490.46 290.926 490.95 278.76 495.983 266.84C496.036 266.102 496.38 265.416 496.938 264.932C497.496 264.447 498.224 264.204 498.961 264.256L526.466 266.208C527.203 266.261 527.889 266.605 528.373 267.163C528.857 267.722 529.1 268.45 529.049 269.187L526.465 305.625C526.412 306.363 526.068 307.049 525.51 307.534C524.952 308.018 524.224 308.261 523.487 308.21L495.982 306.257C495.245 306.204 494.559 305.86 494.075 305.302C493.591 304.743 493.348 304.016 493.399 303.278Z" fill="#126D11"/>
<path d="M496.289 292.422C493.937 286.335 495.441 277.964 497.951 268.996C498.001 268.306 498.322 267.663 498.845 267.209C499.368 266.755 500.049 266.528 500.739 266.576L524.378 268.254C525.068 268.304 525.711 268.626 526.164 269.149C526.618 269.672 526.845 270.353 526.797 271.044L524.497 303.469C524.448 304.16 524.126 304.802 523.603 305.256C523.08 305.71 522.399 305.938 521.709 305.889L507.065 304.85C503.99 304.628 501.129 303.195 499.109 300.865C497.089 298.535 496.075 295.499 496.289 292.422Z" fill="white"/>
<path d="M511.721 286.24C512.035 286.093 512.332 285.912 512.608 285.702C513.341 285.097 513.882 284.292 514.167 283.386C514.452 282.479 514.468 281.509 514.213 280.593C513.104 276.517 508.23 276.492 504.865 276.982C503.779 277.141 504.241 278.79 505.32 278.633C507.588 278.302 511.148 278.035 512.366 280.513C512.645 281.096 512.743 281.747 512.651 282.386C512.558 283.024 512.278 283.621 511.845 284.1C511.329 284.619 510.648 284.942 509.92 285.016C509.214 284.709 508.448 284.566 507.679 284.598C506.887 284.635 506.445 285.789 507.248 286.193C507.958 286.547 508.741 286.731 509.534 286.732C510.193 287.05 510.742 287.555 511.114 288.184C511.487 288.814 511.664 289.539 511.626 290.269C511.55 290.767 511.377 291.246 511.117 291.677C510.857 292.108 510.514 292.484 510.109 292.783C509.703 293.081 509.243 293.297 508.754 293.418C508.266 293.539 507.758 293.562 507.26 293.487L507.239 293.484C506.164 293.267 505.703 294.917 506.784 295.134C508.233 295.408 509.732 295.094 510.95 294.261C512.168 293.429 513.005 292.147 513.278 290.697C513.293 290.618 513.306 290.54 513.318 290.46C513.386 289.682 513.277 288.898 513.001 288.168C512.724 287.437 512.287 286.778 511.721 286.24Z" fill="#48AE46"/>
<path d="M462.6 108.115C459.66 95.7632 460.15 83.597 465.184 71.6773C465.237 70.9398 465.58 70.2536 466.138 69.7691C466.697 69.2846 467.424 69.0414 468.161 69.0929L495.666 71.0456C496.403 71.0987 497.089 71.4422 497.574 72.0007C498.058 72.5592 498.301 73.2871 498.249 74.0247L495.665 110.463C495.612 111.2 495.269 111.887 494.711 112.371C494.152 112.856 493.425 113.099 492.688 113.047L465.183 111.095C464.445 111.041 463.76 110.698 463.275 110.139C462.791 109.581 462.548 108.853 462.6 108.115Z" fill="#126D11"/>
<path d="M465.49 97.2593C463.137 91.1724 464.642 82.8008 467.151 73.8335C467.201 73.1429 467.523 72.5002 468.045 72.0465C468.568 71.5927 469.249 71.365 469.94 71.4132L493.578 73.0914C494.268 73.1411 494.911 73.4628 495.364 73.9859C495.818 74.5089 496.046 75.1906 495.997 75.8814L493.698 108.306C493.648 108.997 493.326 109.64 492.804 110.094C492.281 110.547 491.599 110.775 490.909 110.727L476.266 109.687C473.191 109.465 470.329 108.032 468.309 105.703C466.289 103.373 465.275 100.336 465.49 97.2593Z" fill="white"/>
<path d="M480.026 80.942C477.603 80.1007 474.909 82.018 474.634 84.5038C474.322 87.3213 477.351 89.5455 479.973 88.7797C481.028 88.4717 480.579 86.8191 479.519 87.1289C477.596 87.6902 475.546 85.6136 476.651 83.757C476.902 83.3089 477.284 82.9479 477.745 82.7222C478.206 82.4964 478.725 82.4165 479.233 82.4931C479.664 82.6126 480.061 82.8315 480.392 83.1322C480.723 83.4329 480.98 83.8072 481.14 84.2248C482.083 86.3513 480.962 88.5102 479.477 90.0558C478.63 90.9372 477.635 91.6223 476.722 92.4258C476.278 92.7614 475.91 93.1863 475.64 93.6732C475.37 94.1602 475.205 94.6982 475.156 95.2528C475.18 95.8764 475.374 96.4815 475.717 97.0028C476.06 97.524 476.539 97.9415 477.102 98.2101C478.561 98.9607 480.22 98.722 481.772 98.4722C482.857 98.2977 482.396 96.6477 481.317 96.8214C479.96 97.0399 477.928 97.371 477.068 95.955C476.331 94.7424 477.849 93.6776 478.676 93.0326C480.754 91.4114 482.855 89.3178 483.167 86.5614C483.423 84.3033 482.276 81.7231 480.026 80.942Z" fill="#48AE46"/>
<path d="M62.6236 247.737L76.1754 253.843C69.8045 259.013 60.1026 265.969 50.6003 269.188L35.5028 258.887C29.879 237.191 33.324 214.833 40.0828 195.927C43.8275 185.422 48.7933 175.394 54.8781 166.048C54.2548 159.687 55.2422 153.271 57.7491 147.392C60.256 141.513 64.2018 136.36 69.2227 132.408C69.2797 132.363 69.3311 132.323 69.3824 132.277C74.3834 136.619 78.4685 141.915 81.3988 147.856C84.329 153.797 86.0454 160.263 86.4477 166.876L86.75 171.874L87.3546 181.724L88.8888 206.878L70.6942 235.182L62.6236 247.737Z" fill="#48AE46"/>
<path d="M101.611 355.124C101.77 355.322 101.971 355.483 102.2 355.592C102.43 355.702 102.681 355.758 102.935 355.757H195.527C195.781 355.757 196.031 355.7 196.259 355.591C196.488 355.482 196.689 355.323 196.849 355.126C197.008 354.93 197.122 354.7 197.181 354.453C197.241 354.207 197.245 353.951 197.193 353.703L195.756 346.872C195.696 346.594 195.568 346.334 195.382 346.118C195.197 345.902 194.961 345.735 194.695 345.634C194.502 345.558 194.297 345.52 194.09 345.52H104.366C104.159 345.52 103.954 345.558 103.762 345.634C103.496 345.735 103.259 345.902 103.074 346.118C102.889 346.334 102.76 346.594 102.701 346.872L101.264 353.703C101.212 353.951 101.217 354.207 101.277 354.453C101.337 354.698 101.452 354.928 101.611 355.124Z" fill="#2F2E41"/>
<path d="M66.1633 202.212V309.072C66.1644 310.434 66.7056 311.74 67.668 312.703C68.6305 313.666 69.9355 314.207 71.2966 314.208H229.572C230.933 314.207 232.239 313.666 233.201 312.703C234.163 311.74 234.705 310.434 234.706 309.072V202.212C234.702 200.851 234.16 199.548 233.198 198.586C232.236 197.625 230.932 197.084 229.572 197.082H71.2966C69.9367 197.084 68.6329 197.625 67.6708 198.586C66.7086 199.548 66.1666 200.851 66.1633 202.212Z" fill="#3F3D56"/>
<path d="M130.632 293.242V351.768H171.612V293.242C171.613 292.821 171.479 292.411 171.229 292.072C170.98 291.733 170.628 291.483 170.226 291.359C170.037 291.297 169.838 291.266 169.639 291.268H132.611C132.087 291.267 131.584 291.474 131.213 291.844C130.842 292.214 130.633 292.716 130.632 293.24V293.242ZM146.625 313.352C146.635 312.198 147.101 311.096 147.92 310.284C148.74 309.472 149.846 309.016 150.999 309.016C152.152 309.016 153.259 309.472 154.078 310.284C154.897 311.096 155.363 312.198 155.374 313.352V320.143C155.368 321.3 154.904 322.407 154.085 323.223C153.265 324.039 152.156 324.497 150.999 324.497C149.843 324.497 148.733 324.039 147.914 323.223C147.094 322.407 146.63 321.3 146.625 320.143V313.352Z" fill="#2F2E41"/>
<path d="M154.549 83.958C174.245 83.958 190.212 67.9831 190.212 48.2771C190.212 28.5711 174.245 12.5962 154.549 12.5962C134.853 12.5962 118.886 28.5711 118.886 48.2771C118.886 67.9831 134.853 83.958 154.549 83.958Z" fill="#FFB6B6"/>
<path d="M197.249 42.0351C193.404 43.2294 189.698 43.9334 187.197 40.7779C184.697 37.6225 185.35 34.0146 181.631 32.4935C178.628 31.2615 175.16 31.7895 172.132 32.9335C171.592 33.1346 171.064 33.3609 170.549 33.5871C170.26 33.3357 169.971 33.097 169.657 32.8706C167.293 31.1887 164.374 30.4778 161.502 30.8844C163.601 31.8989 165.329 33.5481 166.44 35.5986C165.41 36.114 164.303 36.4992 163.311 37.0694C149.692 44.9037 134.545 48.0589 135.782 34.9826C139.903 45.8441 136.699 49.7161 130.655 59.6348L130.416 60.213C131.019 57.6109 126.779 57.4875 123.116 58.3777C120.411 59.0351 122.162 65.3452 125.629 69.6918C117.877 58.0131 106.265 40.182 116.306 31.2363C117.787 29.9169 118.716 28.0554 118.982 23.2913C119.14 20.4666 123.945 19.7588 126.484 21.0159C126.851 16.7686 128.335 12.6941 130.784 9.20573C133.233 5.71737 136.562 2.93929 140.431 1.15334C148.196 -2.30375 156.093 3.01429 164.53 4.04471C169.211 4.61643 172.762 6.5028 172.949 12.48C173.073 16.4605 179.068 17.8857 182.988 18.5896C185.476 19.0297 188.278 18.7657 190.263 20.3371C192.562 22.1599 192.587 25.3656 192.575 28.4455C190.325 28.3813 188.107 28.9897 186.205 30.1929C188.533 30.2515 190.785 31.0433 192.638 32.4557C192.673 32.4778 192.707 32.503 192.738 32.5312C193.417 37.7106 193.14 38.8043 197.249 42.0351Z" fill="#2F2E41"/>
<path d="M222.97 216.014C236.905 211.682 251.823 216.367 265.835 212.368C269.057 211.486 272.104 210.055 274.84 208.137C277.174 206.366 279.366 204.415 281.394 202.301C285.609 198.13 290.187 193.75 296.519 193.798C304.858 193.862 311.261 200.059 316.819 205.532C317.605 206.305 318.816 205.096 318.029 204.321C312.922 199.293 307.404 193.988 300.134 192.487C296.872 191.763 293.468 192.046 290.371 193.298C287.684 194.52 285.229 196.199 283.117 198.261C280.878 200.315 278.813 202.552 276.544 204.574C274.175 206.73 271.446 208.453 268.481 209.665C262.058 212.224 255.012 212.533 248.18 212.458C239.604 212.365 230.823 211.78 222.515 214.364C221.467 214.69 221.914 216.343 222.97 216.014Z" fill="#3F3D56"/>
<path d="M319.875 193.994L324.159 201.55L326.232 205.205C326.6 205.855 326.979 206.5 327.337 207.155C327.557 207.558 328.039 208.283 327.579 208.665C327.176 208.862 326.722 208.933 326.277 208.868C325.522 208.87 324.766 208.853 324.011 208.845L319.763 208.802L310.983 208.713C310.762 208.721 310.551 208.814 310.397 208.974C310.243 209.134 310.157 209.347 310.157 209.569C310.157 209.791 310.243 210.004 310.397 210.164C310.551 210.324 310.762 210.417 310.983 210.425C316.08 210.476 321.18 210.584 326.277 210.58C327.166 210.665 328.056 210.421 328.778 209.895C329.132 209.543 329.366 209.089 329.447 208.596C329.529 208.104 329.453 207.598 329.232 207.151C328.729 206.054 328.151 204.993 327.502 203.976L325.636 200.686L321.353 193.13C321.234 192.943 321.047 192.808 320.832 192.756C320.616 192.703 320.388 192.736 320.197 192.848C320.005 192.96 319.864 193.142 319.805 193.356C319.745 193.57 319.77 193.799 319.875 193.994Z" fill="#3F3D56"/>
<path d="M376.495 212.507H337.122C336.907 212.508 336.693 212.466 336.494 212.385C336.294 212.303 336.113 212.183 335.96 212.031C335.807 211.879 335.685 211.698 335.602 211.499C335.519 211.3 335.476 211.087 335.475 210.871C335.474 210.655 335.516 210.441 335.598 210.242C335.68 210.042 335.801 209.861 335.953 209.708C336.105 209.555 336.285 209.434 336.484 209.351C336.683 209.268 336.897 209.225 337.112 209.225C337.116 209.225 337.119 209.225 337.122 209.225H376.495C376.71 209.224 376.924 209.265 377.124 209.347C377.323 209.429 377.505 209.549 377.658 209.701C377.811 209.853 377.932 210.034 378.015 210.233C378.098 210.432 378.142 210.645 378.142 210.861C378.143 211.077 378.101 211.29 378.019 211.49C377.937 211.689 377.817 211.871 377.665 212.024C377.513 212.177 377.332 212.298 377.133 212.381C376.934 212.464 376.72 212.507 376.505 212.507C376.502 212.507 376.498 212.507 376.495 212.507Z" fill="#0B410A"/>
<path d="M376.495 238.945H337.122C336.907 238.945 336.693 238.903 336.494 238.821C336.295 238.74 336.114 238.619 335.961 238.467C335.808 238.315 335.687 238.135 335.604 237.936C335.521 237.737 335.477 237.524 335.477 237.308C335.476 237.093 335.518 236.879 335.6 236.68C335.682 236.48 335.802 236.299 335.954 236.146C336.106 235.993 336.286 235.872 336.485 235.789C336.684 235.706 336.897 235.662 337.112 235.662C337.116 235.662 337.119 235.662 337.122 235.662H376.495C376.71 235.661 376.924 235.703 377.123 235.785C377.322 235.867 377.504 235.987 377.656 236.139C377.809 236.291 377.931 236.472 378.014 236.67C378.097 236.869 378.14 237.083 378.14 237.298C378.141 237.514 378.099 237.727 378.017 237.927C377.936 238.126 377.815 238.307 377.663 238.46C377.511 238.613 377.331 238.735 377.132 238.818C376.933 238.901 376.72 238.944 376.505 238.945C376.501 238.945 376.498 238.945 376.495 238.945Z" fill="#0B410A"/>
<path d="M415.146 225.726H337.122C336.907 225.727 336.693 225.685 336.494 225.603C336.294 225.522 336.113 225.401 335.96 225.249C335.807 225.097 335.685 224.917 335.602 224.718C335.519 224.519 335.476 224.305 335.475 224.089C335.474 223.874 335.516 223.66 335.598 223.461C335.68 223.261 335.801 223.08 335.953 222.927C336.105 222.774 336.285 222.652 336.484 222.569C336.683 222.486 336.897 222.444 337.112 222.443C337.116 222.443 337.119 222.443 337.122 222.443H415.146C415.361 222.442 415.575 222.484 415.774 222.566C415.974 222.647 416.155 222.768 416.308 222.92C416.461 223.072 416.583 223.252 416.666 223.451C416.749 223.65 416.792 223.864 416.793 224.08C416.794 224.295 416.752 224.509 416.67 224.708C416.588 224.908 416.468 225.089 416.315 225.242C416.163 225.395 415.983 225.517 415.784 225.6C415.585 225.683 415.371 225.725 415.156 225.726C415.152 225.726 415.149 225.726 415.146 225.726Z" fill="#0B410A"/>
<path d="M362.908 197.006C371.57 185.256 386.363 180.19 395.285 168.664C397.359 166.044 398.966 163.085 400.035 159.918C400.867 157.108 401.477 154.237 401.861 151.332C402.787 145.473 403.882 139.232 409.013 135.518C415.769 130.627 424.597 131.826 432.315 132.941C432.535 132.967 432.757 132.906 432.934 132.772C433.111 132.637 433.228 132.439 433.262 132.219C433.295 132 433.242 131.776 433.114 131.595C432.985 131.414 432.791 131.289 432.573 131.248C425.481 130.224 417.894 129.22 411.148 132.319C408.092 133.669 405.517 135.914 403.763 138.759C402.321 141.335 401.338 144.143 400.856 147.056C400.269 150.038 399.929 153.064 399.298 156.038C398.666 159.179 397.487 162.185 395.816 164.918C392.156 170.787 386.662 175.211 381.114 179.2C374.149 184.207 366.728 188.94 361.564 195.945C360.912 196.829 362.251 197.896 362.908 197.006Z" fill="#3F3D56"/>
<path d="M427.946 121.834L435.871 125.383L439.705 127.1C440.386 127.405 441.073 127.7 441.75 128.015C442.166 128.209 442.983 128.509 442.839 129.088C442.74 129.483 442.212 129.801 441.91 130.024C441.303 130.472 440.684 130.907 440.071 131.348L436.623 133.831L429.496 138.962C429.322 139.1 429.208 139.3 429.179 139.52C429.149 139.74 429.206 139.963 429.337 140.142C429.469 140.321 429.664 140.441 429.883 140.479C430.102 140.516 430.326 140.467 430.51 140.342C434.647 137.363 438.819 134.427 442.924 131.403C443.69 130.944 444.263 130.221 444.533 129.369C444.61 128.876 444.529 128.371 444.303 127.926C444.077 127.481 443.717 127.118 443.274 126.889C442.22 126.303 441.126 125.791 440 125.356L436.549 123.811L428.625 120.262C428.418 120.181 428.188 120.184 427.983 120.269C427.778 120.354 427.614 120.516 427.526 120.72C427.438 120.924 427.433 121.154 427.511 121.362C427.59 121.57 427.746 121.739 427.946 121.834Z" fill="#3F3D56"/>
<path d="M499.123 130.904H459.75C459.535 130.905 459.321 130.863 459.122 130.782C458.922 130.7 458.741 130.58 458.588 130.428C458.435 130.276 458.313 130.095 458.23 129.896C458.147 129.697 458.104 129.483 458.103 129.268C458.102 129.052 458.144 128.838 458.226 128.639C458.308 128.439 458.429 128.258 458.581 128.105C458.733 127.952 458.913 127.831 459.112 127.748C459.311 127.665 459.525 127.622 459.74 127.621C459.744 127.621 459.747 127.621 459.75 127.621H499.123C499.339 127.621 499.552 127.662 499.752 127.744C499.951 127.826 500.133 127.946 500.286 128.098C500.439 128.25 500.56 128.431 500.643 128.63C500.727 128.829 500.77 129.042 500.77 129.258C500.771 129.474 500.729 129.687 500.647 129.887C500.565 130.086 500.445 130.268 500.293 130.421C500.141 130.573 499.96 130.695 499.761 130.778C499.562 130.861 499.348 130.904 499.133 130.904C499.13 130.904 499.126 130.904 499.123 130.904Z" fill="#48AE46"/>
<path d="M393.137 248.828C401.799 260.577 416.592 265.643 425.514 277.169C427.588 279.79 429.195 282.749 430.264 285.916C431.096 288.725 431.707 291.596 432.09 294.502C433.016 300.36 434.111 306.602 439.242 310.316C445.998 315.206 454.826 314.008 462.544 312.893C462.765 312.867 462.987 312.927 463.163 313.062C463.34 313.196 463.458 313.394 463.491 313.614C463.525 313.834 463.471 314.058 463.343 314.239C463.214 314.42 463.021 314.544 462.802 314.585C455.71 315.61 448.123 316.614 441.377 313.514C438.321 312.165 435.746 309.919 433.992 307.075C432.55 304.498 431.567 301.691 431.086 298.777C430.498 295.795 430.159 292.77 429.527 289.796C428.895 286.655 427.717 283.649 426.046 280.916C422.385 275.047 416.891 270.623 411.343 266.634C404.378 261.627 396.958 256.894 391.793 249.888C391.141 249.005 392.481 247.938 393.137 248.828Z" fill="#3F3D56"/>
<path d="M458.176 324L466.1 320.451L469.934 318.734C470.616 318.429 471.303 318.134 471.979 317.818C472.395 317.625 473.212 317.325 473.068 316.746C472.97 316.351 472.441 316.033 472.139 315.81C471.532 315.361 470.913 314.927 470.3 314.486L466.852 312.003L459.725 306.871C459.551 306.734 459.438 306.534 459.408 306.314C459.378 306.094 459.435 305.871 459.567 305.692C459.698 305.513 459.894 305.392 460.112 305.355C460.331 305.318 460.556 305.367 460.739 305.492C464.876 308.471 469.049 311.407 473.153 314.431C473.92 314.889 474.492 315.613 474.763 316.465C474.839 316.958 474.759 317.463 474.533 317.908C474.307 318.353 473.947 318.716 473.503 318.945C472.449 319.531 471.355 320.043 470.23 320.478L466.779 322.023L458.854 325.571C458.648 325.652 458.418 325.65 458.213 325.565C458.008 325.479 457.844 325.317 457.756 325.114C457.668 324.91 457.662 324.68 457.741 324.472C457.819 324.264 457.975 324.095 458.176 324Z" fill="#3F3D56"/>
<path d="M529.352 319.79H489.98C489.545 319.791 489.127 319.62 488.819 319.313C488.51 319.007 488.335 318.591 488.334 318.156C488.332 317.721 488.502 317.303 488.808 316.993C489.114 316.684 489.53 316.509 489.965 316.507C489.97 316.507 489.975 316.507 489.98 316.507H529.352C529.787 316.505 530.205 316.677 530.513 316.983C530.822 317.29 530.996 317.706 530.998 318.141C531 318.576 530.829 318.994 530.524 319.303C530.218 319.612 529.802 319.787 529.367 319.79C529.362 319.79 529.357 319.79 529.352 319.79Z" fill="#48AE46"/>
<path d="M80.5165 255.989C79.7711 257.466 78.7137 258.765 77.4174 259.793C76.1212 260.822 74.6171 261.557 73.0092 261.947C71.4012 262.337 69.7278 262.372 68.1047 262.052C66.4815 261.731 64.9474 261.061 63.6083 260.089L22.6019 279.613L19.8538 268.114L61.6145 243.492C63.418 241.359 65.941 239.961 68.7053 239.565C71.4697 239.168 74.2835 239.8 76.6134 241.34C78.9433 242.881 80.6275 245.223 81.3469 247.922C82.0663 250.622 81.7708 253.492 80.5165 255.989Z" fill="#FFB6B6"/>
<path d="M64.7148 196.685L35.8601 255.673L48.0545 250.144L56.5415 246.292L60.7964 262.464C60.7964 262.464 57.9788 265.203 53.5357 268.804C47.1647 273.974 37.4628 280.93 27.9606 284.149C20.523 286.671 13.2167 286.905 7.72979 282.203C-2.68504 273.278 7.49595 237.835 17.3347 210.849C23.9224 192.776 30.3504 178.504 30.3504 178.504C30.3504 159.444 67.3205 132.038 74.182 128.289C78.1004 126.154 79.1839 129.263 79.1839 129.263L57.6822 160.757L64.1102 186.836L65.9296 194.203L64.7148 196.685Z" fill="#48AE46"/>
</g>
<defs>
<clipPath id="clip0_672_796">
<rect width="531" height="455" fill="white"/>
</clipPath>
</defs>
</svg>
