<svg width="622" height="460" viewBox="0 0 622 460" fill="none" xmlns="http://www.w3.org/2000/svg">
<g clip-path="url(#clip0_672_909)">
<path d="M441.5 337.383H106.545C103.56 337.38 100.699 336.192 98.5888 334.081C96.4784 331.97 95.2913 329.107 95.2878 326.121V53.2644C95.2913 50.2787 96.4784 47.4162 98.5888 45.3049C100.699 43.1936 103.56 42.006 106.545 42.0025H441.5C444.485 42.006 447.346 43.1936 449.457 45.3049C451.567 47.4162 452.754 50.2787 452.758 53.2644V326.121C452.754 329.107 451.567 331.97 449.457 334.081C447.346 336.192 444.485 337.38 441.5 337.383Z" fill="#E6E6E6"/>
<path d="M114.14 50.0185C111.265 50.0219 108.509 51.1659 106.476 53.1997C104.443 55.2335 103.3 57.9909 103.296 60.867V318.525C103.3 321.401 104.443 324.159 106.476 326.192C108.509 328.226 111.265 329.37 114.14 329.373H343.404C370.273 329.343 396.034 318.651 415.033 299.643C434.033 280.635 444.72 254.864 444.751 227.983V60.867C444.748 57.9909 443.604 55.2335 441.571 53.1997C439.539 51.1659 436.782 50.0219 433.907 50.0186L114.14 50.0185Z" fill="white"/>
<path d="M380.421 165.899H319.686C318.419 165.898 317.204 165.394 316.309 164.497C315.413 163.601 314.909 162.386 314.908 161.119V130.877C314.909 129.61 315.413 128.395 316.309 127.499C317.204 126.603 318.419 126.099 319.686 126.097H380.421C381.688 126.099 382.902 126.603 383.798 127.499C384.694 128.395 385.197 129.61 385.199 130.877C388.957 141.579 389.491 151.748 385.199 161.119C385.197 162.386 384.694 163.601 383.798 164.497C382.902 165.394 381.688 165.898 380.421 165.899Z" fill="#E6E6E6"/>
<path d="M373.226 162.976H321.625C320.549 162.975 319.517 162.547 318.756 161.785C317.995 161.024 317.567 159.992 317.566 158.915V133.222C317.567 132.145 317.995 131.113 318.756 130.351C319.517 129.59 320.549 129.162 321.625 129.161H373.226C374.302 129.162 375.334 129.59 376.095 130.351C376.856 131.113 377.284 132.145 377.285 133.222C380.767 142.372 381.328 151.031 377.285 158.915C377.284 159.992 376.856 161.024 376.095 161.785C375.334 162.547 374.302 162.975 373.226 162.976Z" fill="white"/>
<path d="M370.443 181.741H329.529C328.326 181.742 327.171 181.266 326.318 180.416C325.466 179.566 324.986 178.412 324.983 177.208C324.981 176.004 325.457 174.848 326.306 173.995C327.155 173.142 328.309 172.661 329.512 172.658H370.443C371.645 172.661 372.798 173.14 373.647 173.991C374.497 174.843 374.974 175.997 374.974 177.199C374.974 178.402 374.497 179.556 373.647 180.408C372.798 181.259 371.645 181.738 370.443 181.741Z" fill="#E6E6E6"/>
<path d="M342.934 136.098C342.463 136.1 342.013 136.288 341.68 136.621C341.347 136.954 341.16 137.406 341.159 137.877V157.126C341.159 157.436 341.241 157.742 341.396 158.011C341.551 158.281 341.774 158.505 342.042 158.661C342.311 158.817 342.616 158.9 342.926 158.901C343.237 158.902 343.543 158.822 343.813 158.668L360.796 148.98C361.068 148.825 361.295 148.6 361.453 148.328C361.61 148.056 361.693 147.747 361.692 147.433C361.691 147.119 361.607 146.811 361.448 146.54C361.289 146.269 361.061 146.045 360.787 145.891L343.805 136.329C343.539 136.178 343.239 136.099 342.934 136.098Z" fill="#E6E6E6"/>
<path d="M590.702 423.171C589.766 421.98 588.494 421.096 587.051 420.635C585.607 420.173 584.059 420.155 582.605 420.582L582.287 420.677L579.435 431.814C579.008 430.154 578.094 426.407 577.518 422.739L577.468 422.436L577.185 422.56C574.204 423.878 571.401 425.568 568.844 427.59C564.313 431.226 560.628 435.805 558.045 441.009C555.462 446.214 554.043 451.919 553.886 457.728L553.881 457.941L553.876 458.075L554.254 457.941L562.356 455.044C565.943 455.36 569.556 454.871 572.93 453.612C576.305 452.353 579.355 450.357 581.86 447.768C585.134 444.314 587.379 439.871 589.55 435.572C590.186 434.319 590.837 433.027 591.502 431.784C592.245 430.433 592.566 428.891 592.423 427.355C592.28 425.82 591.681 424.363 590.702 423.171Z" fill="#F2F2F2"/>
<path d="M383.788 139.147C383.95 139.99 384.296 140.787 384.8 141.482C385.303 142.177 385.954 142.753 386.704 143.17C387.455 143.587 388.287 143.833 389.144 143.893C390 143.953 390.859 143.824 391.66 143.516L415.876 171.699L418.941 161.295L394.934 135.511C394.327 134.199 393.26 133.155 391.935 132.577C390.611 131.999 389.12 131.928 387.746 132.376C386.372 132.824 385.211 133.761 384.481 135.009C383.751 136.257 383.505 137.729 383.788 139.147Z" fill="#FFB8B8"/>
<path d="M481.383 451.204H473.369L469.557 420.28H481.384L481.383 451.204Z" fill="#FFB6B6"/>
<path d="M481.169 448.585L472.613 445.104L472.367 445.003L467.643 448.585C464.976 448.586 462.418 449.646 460.532 451.533C458.646 453.42 457.586 455.979 457.585 458.648V458.974H483.424V448.585H481.169Z" fill="#48AE46"/>
<path d="M538.551 451.204H530.537L526.725 420.28H538.553L538.551 451.204Z" fill="#FFB6B6"/>
<path d="M538.337 448.585L529.781 445.104L529.536 445.003L524.812 448.585C522.144 448.586 519.586 449.646 517.7 451.533C515.814 453.42 514.754 455.979 514.754 458.648V458.974H540.592V448.585H538.337Z" fill="#48AE46"/>
<path d="M519.637 266.54C519.637 266.54 529.689 277.002 529.689 285.598C529.689 294.193 527.176 305.996 529.689 308.579C532.202 311.163 535.343 314.305 531.574 318.076C527.804 321.847 525.92 323.733 528.432 326.247C530.945 328.76 529.689 372.755 529.689 372.755L542.882 431.833H526.261L505.188 372.755L499.534 323.732L481.249 370.869L483.268 432.34L465.892 431.833L458.7 366.47C458.7 366.47 469.379 304.294 467.495 302.7C465.61 301.107 467.495 297.89 467.495 297.89L472.521 274.082L519.637 266.54Z" fill="#B8E0B7"/>
<path d="M499.957 192.366C499.957 192.366 503.375 178.892 487.629 175.029C471.883 171.166 426.873 166.203 426.873 166.203L404.126 142.056L396.419 153.254L421.919 184.955L482.338 197.371L499.957 192.366Z" fill="#126D11"/>
<path d="M400.165 152.429C400.871 151.513 401.424 150.489 401.802 149.395L405.064 141.376L404.217 141.341C403.045 141.12 401.84 141.15 400.68 141.428C399.521 141.706 398.433 142.226 397.489 142.954C396.544 143.682 395.764 144.601 395.199 145.651C394.634 146.702 394.298 147.86 394.212 149.05C394.105 150.079 394.29 151.117 394.745 152.046C394.977 152.507 395.314 152.906 395.73 153.211C396.146 153.516 396.628 153.718 397.136 153.801C397.714 153.832 398.291 153.723 398.818 153.484C399.345 153.246 399.807 152.883 400.165 152.429Z" fill="#E6E6E6"/>
<path d="M469.313 277.293L467.428 290.961C467.428 290.961 471.197 295.01 473.082 294.504C474.967 293.998 481.877 291.051 481.877 291.051C481.877 291.051 490.044 295.517 494.442 296.023C498.839 296.529 522.083 293.492 522.712 291.973C523.34 290.454 530.642 284.51 530.642 284.51L527.737 267.168L469.313 277.293Z" fill="#E6E6E6"/>
<path d="M530.52 229.478C530.52 229.478 528.925 242.657 530.181 243.87C531.438 245.077 528.925 252.713 526.412 257.741C523.899 262.769 528.297 263.398 528.297 267.168C528.297 270.939 530.181 284.766 530.181 284.766C530.181 284.766 510.706 286.023 507.565 282.881C504.424 279.738 499.398 282.252 492.488 289.166C485.577 296.079 470.569 290.423 467.428 287.28C464.287 284.138 469.872 272.825 471.756 270.631C473.641 268.438 469.941 270.977 468.056 264.026C466.172 257.075 469.872 257.741 473.013 254.599C476.154 251.456 473.013 245.8 470.5 240.143C467.987 234.487 469.872 192.378 469.872 182.322C469.872 172.266 483.693 171.01 483.693 171.01L489.164 164.128L493.185 159.068L501.063 158.754L501.27 158.748L508.891 158.44L512.591 162.751L520.758 172.267L530.181 174.152C537.72 176.666 535.835 192.378 535.835 192.378L530.52 229.478Z" fill="#126D11"/>
<path d="M500.674 156.028C509.593 156.028 516.823 148.795 516.823 139.872C516.823 130.95 509.593 123.717 500.674 123.717C491.756 123.717 484.526 130.95 484.526 139.872C484.526 148.795 491.756 156.028 500.674 156.028Z" fill="#FFB6B6"/>
<path d="M519.398 134.437C514.957 131.712 515.526 124.587 511.246 122.099C509.119 120.872 506.727 120.178 504.274 120.075C501.821 119.972 499.38 120.463 497.157 121.507C494.143 120.217 490.532 121.246 488.12 123.576C485.709 125.906 484.403 129.342 484.019 132.799C483.741 136.272 483.99 139.766 484.758 143.164C484.997 141.799 485.237 140.434 485.476 139.069L498.207 136.285C497.08 137.298 495.953 138.311 494.826 139.324C500.592 140.637 506.641 139.691 511.731 136.679C517.273 139.165 516.268 144.747 511.403 152.155C513.288 155.297 524.459 137.542 519.398 134.437Z" fill="#2F2E41"/>
<path d="M512.591 162.751C512.555 162.78 512.517 162.808 512.478 162.833C511.147 163.627 509.624 164.04 508.074 164.027C506.046 164.196 504.032 163.565 502.464 162.267C501.641 161.488 498.368 163.135 496.22 164.046C493.966 164.98 491.439 165.009 489.165 164.128L493.185 159.068L499.812 157.598H501.466L508.891 158.44L512.591 162.751Z" fill="#E6E6E6"/>
<path d="M621.02 459.746L396.233 460C396.104 460.001 395.976 459.976 395.856 459.927C395.736 459.878 395.627 459.806 395.536 459.715C395.444 459.624 395.37 459.516 395.32 459.396C395.27 459.277 395.244 459.149 395.243 459.02C395.243 458.89 395.268 458.762 395.316 458.642C395.365 458.522 395.437 458.414 395.528 458.322C395.619 458.23 395.727 458.156 395.847 458.106C395.966 458.056 396.094 458.03 396.223 458.029H396.233L621.02 457.775C621.281 457.776 621.53 457.881 621.713 458.065C621.897 458.25 622 458.5 622 458.76C622 459.021 621.897 459.271 621.713 459.455C621.53 459.64 621.281 459.744 621.02 459.746Z" fill="#0B410A"/>
<path d="M351.869 128.842H350.215V10.4691H415.279V12.1242H351.869V128.842Z" fill="#3F3D56"/>
<path d="M465.879 0H422.039C419.187 0 416.452 1.13343 414.435 3.15093C412.418 5.16844 411.285 7.90476 411.285 10.7579C411.285 13.6111 412.418 16.3475 414.435 18.365C416.452 20.3825 419.187 21.5159 422.039 21.5159H465.879C468.731 21.5159 471.466 20.3825 473.483 18.365C475.5 16.3475 476.633 13.6111 476.633 10.7579C476.633 7.90476 475.5 5.16844 473.483 3.15093C471.466 1.13343 468.731 0 465.879 0Z" fill="#48AE46"/>
<path d="M350.082 139.672C355.54 139.672 359.964 135.246 359.964 129.786C359.964 124.326 355.54 119.9 350.082 119.9C344.625 119.9 340.201 124.326 340.201 129.786C340.201 135.246 344.625 139.672 350.082 139.672Z" fill="#48AE46"/>
<path d="M231.009 166.932L274.358 156.896L286.801 154.016C288.357 153.655 287.711 151.258 286.154 151.619L242.804 161.654L230.361 164.535C228.805 164.895 229.451 167.293 231.009 166.932Z" fill="#F2F2F2"/>
<path d="M275.773 140.797L298.979 151.476C299.771 151.75 300.513 152.152 301.175 152.666C301.816 153.293 301.349 153.897 300.827 154.444C299.265 155.903 297.615 157.265 295.887 158.522L286 166.564C284.759 167.573 286.51 169.335 287.74 168.335L296.351 161.331L300.657 157.829C301.876 156.837 303.361 155.824 303.851 154.244C304.881 150.923 300.817 149.603 298.558 148.564L288.452 143.913L277.036 138.659C275.597 137.997 274.323 140.129 275.773 140.797Z" fill="#F2F2F2"/>
<path d="M596.019 222.097C591.884 219.292 586.862 218.251 581.952 217.897C576.372 217.593 570.78 217.6 565.201 217.917C559.405 218.146 553.621 218.566 547.849 219.175C542.085 219.786 536.345 220.585 530.63 221.574C525.513 222.371 520.449 223.48 515.467 224.895C510.751 226.2 506.309 228.346 502.354 231.229C498.883 233.841 496.213 237.375 494.649 241.429C493.113 245.23 492.852 249.428 493.905 253.391C494.466 255.316 495.426 257.101 496.724 258.63C498.223 260.307 499.999 261.714 501.975 262.79C506.076 265.132 510.723 266.541 514.432 269.54C515.41 270.325 516.302 271.212 517.092 272.186C517.628 272.94 518.37 273.523 519.228 273.867C520.042 274.152 520.921 274.189 521.755 273.974C522.59 273.759 523.342 273.302 523.917 272.66C524.66 271.643 525.28 270.541 525.762 269.377L527.719 265.6C527.85 265.27 528.014 264.954 528.208 264.656C528.355 264.481 528.093 264.66 528.143 264.614C528.17 264.588 528.227 264.589 528.259 264.569C528.42 264.488 528.59 264.424 528.764 264.375C530.574 263.685 532.392 263.016 534.218 262.369C540.959 259.965 547.781 257.75 554.711 255.956C558.277 254.999 561.894 254.242 565.544 253.688C570.272 253.015 575.072 253.093 579.821 252.632C584.935 252.137 590.211 251.101 594.596 248.284C598.222 246.08 601.015 242.735 602.539 238.774C603.199 236.886 603.426 234.873 603.201 232.885C602.632 228.388 599.694 224.59 596.019 222.097Z" fill="#E6E6E6"/>
<path d="M587.557 224.624C583.821 222.09 579.282 221.148 574.846 220.828C569.804 220.554 564.75 220.56 559.708 220.846C554.47 221.054 549.244 221.433 544.028 221.984C538.819 222.535 533.632 223.258 528.467 224.151C523.843 224.872 519.267 225.874 514.765 227.152C510.503 228.332 506.489 230.271 502.915 232.877C499.778 235.237 497.366 238.43 495.952 242.093C494.565 245.529 494.329 249.322 495.28 252.904C495.787 254.643 496.655 256.257 497.827 257.638C499.182 259.153 500.787 260.425 502.573 261.397C506.279 263.514 510.478 264.787 513.83 267.497C514.714 268.206 515.52 269.008 516.233 269.888C516.718 270.569 517.388 271.096 518.164 271.407C518.899 271.664 519.694 271.698 520.448 271.504C521.202 271.309 521.882 270.896 522.401 270.316C523.073 269.397 523.632 268.401 524.069 267.35L525.837 263.937C525.955 263.638 526.103 263.352 526.279 263.083C526.412 262.925 526.175 263.087 526.22 263.045C526.245 263.022 526.296 263.023 526.324 263.005C526.471 262.932 526.624 262.873 526.781 262.83C528.417 262.206 530.06 261.601 531.71 261.016C537.802 258.845 543.967 256.843 550.229 255.221C553.452 254.356 556.72 253.672 560.019 253.172C564.291 252.563 568.628 252.634 572.92 252.218C577.541 251.77 582.309 250.834 586.272 248.289C589.549 246.297 592.073 243.274 593.449 239.694C594.046 237.988 594.251 236.169 594.048 234.373C593.533 230.309 590.879 226.877 587.557 224.624Z" fill="white"/>
<path d="M579.732 229.199L518.851 240.433C518.677 240.466 518.498 240.465 518.324 240.429C518.151 240.393 517.986 240.323 517.839 240.223C517.693 240.123 517.568 239.995 517.471 239.847C517.374 239.698 517.307 239.532 517.274 239.358C517.242 239.184 517.244 239.004 517.28 238.831C517.317 238.658 517.387 238.493 517.488 238.347C517.588 238.201 517.716 238.076 517.865 237.979C518.014 237.883 518.18 237.816 518.354 237.784L518.362 237.783L579.244 226.549C579.418 226.517 579.596 226.519 579.769 226.556C579.942 226.593 580.106 226.664 580.252 226.764C580.398 226.865 580.522 226.993 580.618 227.141C580.714 227.29 580.78 227.456 580.813 227.63C580.845 227.804 580.842 227.983 580.805 228.156C580.768 228.329 580.698 228.493 580.597 228.639C580.497 228.784 580.369 228.909 580.221 229.005C580.072 229.101 579.906 229.167 579.732 229.199Z" fill="#E6E6E6"/>
<path d="M581.232 237.334L520.35 248.567C520.176 248.601 519.997 248.599 519.824 248.563C519.65 248.527 519.486 248.457 519.339 248.357C519.193 248.257 519.068 248.129 518.971 247.981C518.874 247.832 518.807 247.666 518.774 247.492C518.742 247.318 518.744 247.139 518.78 246.965C518.817 246.792 518.887 246.627 518.988 246.481C519.088 246.335 519.216 246.21 519.365 246.113C519.513 246.017 519.68 245.951 519.854 245.918L519.862 245.917L580.743 234.683C580.917 234.651 581.096 234.654 581.269 234.691C581.442 234.728 581.606 234.798 581.751 234.899C581.897 234.999 582.022 235.127 582.118 235.276C582.214 235.424 582.28 235.59 582.312 235.764C582.344 235.938 582.342 236.117 582.305 236.29C582.268 236.463 582.197 236.627 582.097 236.773C581.997 236.919 581.869 237.043 581.72 237.139C581.572 237.236 581.406 237.302 581.232 237.334Z" fill="#E6E6E6"/>
<path d="M528.945 255.392L521.85 256.702C521.499 256.765 521.138 256.687 520.845 256.484C520.551 256.281 520.35 255.97 520.286 255.62C520.221 255.269 520.298 254.907 520.5 254.613C520.701 254.319 521.011 254.117 521.361 254.051L528.456 252.742C528.807 252.678 529.169 252.756 529.462 252.959C529.756 253.162 529.957 253.473 530.022 253.823C530.086 254.174 530.009 254.536 529.807 254.831C529.606 255.125 529.295 255.327 528.945 255.392Z" fill="#E6E6E6"/>
<path d="M523.805 289.209C526.914 288.635 528.97 285.648 528.397 282.538C527.823 279.427 524.838 277.37 521.728 277.944C518.619 278.518 516.563 281.504 517.136 284.615C517.71 287.726 520.695 289.783 523.805 289.209Z" fill="#D1D3D4"/>
<path d="M208.732 164.367H156.73C154.316 164.364 152.002 163.403 150.295 161.696C148.588 159.988 147.628 157.673 147.625 155.258V120.971C147.628 118.556 148.588 116.24 150.295 114.533C152.002 112.825 154.316 111.864 156.73 111.861H208.732C211.146 111.864 213.46 112.825 215.167 114.533C216.874 116.24 217.835 118.556 217.837 120.971V155.258C217.835 157.673 216.874 159.988 215.167 161.696C213.46 163.403 211.146 164.364 208.732 164.367Z" fill="#E6E6E6"/>
<path d="M203.017 162.52H157.759C155.658 162.517 153.644 161.681 152.159 160.195C150.673 158.709 149.837 156.694 149.835 154.592V124.751C149.837 122.649 150.673 120.634 152.159 119.148C153.644 117.662 155.658 116.826 157.759 116.823H203.017C205.118 116.826 207.133 117.662 208.618 119.148C210.104 120.634 210.94 122.649 210.942 124.751V154.592C210.94 156.694 210.104 158.709 208.618 160.195C207.133 161.681 205.118 162.517 203.017 162.52Z" fill="white"/>
<path d="M216.056 195.257H149.331C148.919 195.256 148.524 195.092 148.233 194.8C147.941 194.508 147.778 194.112 147.778 193.7C147.778 193.287 147.941 192.892 148.233 192.6C148.524 192.308 148.919 192.143 149.331 192.142H216.056C216.469 192.143 216.864 192.308 217.155 192.6C217.446 192.892 217.61 193.287 217.61 193.7C217.61 194.112 217.446 194.508 217.155 194.8C216.864 195.092 216.469 195.256 216.056 195.257Z" fill="#E6E6E6"/>
<path d="M216.056 186.357H149.331C148.919 186.356 148.524 186.191 148.233 185.899C147.941 185.607 147.778 185.212 147.778 184.799C147.778 184.387 147.941 183.991 148.233 183.699C148.524 183.407 148.919 183.243 149.331 183.242H216.056C216.469 183.243 216.864 183.407 217.155 183.699C217.446 183.991 217.61 184.387 217.61 184.799C217.61 185.212 217.446 185.607 217.155 185.899C216.864 186.191 216.469 186.356 216.056 186.357Z" fill="#E6E6E6"/>
<path d="M216.057 204.158H149.331C148.918 204.158 148.522 203.994 148.23 203.702C147.938 203.41 147.774 203.013 147.774 202.6C147.774 202.187 147.938 201.791 148.23 201.499C148.522 201.207 148.918 201.043 149.331 201.043H216.057C216.469 201.043 216.865 201.207 217.157 201.499C217.449 201.791 217.613 202.187 217.613 202.6C217.613 203.013 217.449 203.41 217.157 203.702C216.865 203.994 216.469 204.158 216.057 204.158Z" fill="#E6E6E6"/>
<path d="M216.057 213.058H149.331C148.918 213.058 148.522 212.894 148.23 212.602C147.938 212.31 147.774 211.914 147.774 211.501C147.774 211.088 147.938 210.691 148.23 210.399C148.522 210.107 148.918 209.943 149.331 209.943H216.057C216.469 209.943 216.865 210.107 217.157 210.399C217.449 210.691 217.613 211.088 217.613 211.501C217.613 211.914 217.449 212.31 217.157 212.602C216.865 212.894 216.469 213.058 216.057 213.058Z" fill="#E6E6E6"/>
<path d="M216.057 221.959H149.331C148.918 221.959 148.522 221.795 148.23 221.503C147.938 221.21 147.774 220.814 147.774 220.401C147.774 219.988 147.938 219.592 148.23 219.3C148.522 219.008 148.918 218.844 149.331 218.844H216.057C216.469 218.844 216.865 219.008 217.157 219.3C217.449 219.592 217.613 219.988 217.613 220.401C217.613 220.814 217.449 221.21 217.157 221.503C216.865 221.795 216.469 221.959 216.057 221.959Z" fill="#E6E6E6"/>
<path d="M216.056 230.859H149.331C148.919 230.858 148.524 230.694 148.233 230.402C147.941 230.11 147.778 229.714 147.778 229.302C147.778 228.889 147.941 228.494 148.233 228.202C148.524 227.91 148.919 227.745 149.331 227.744H216.056C216.469 227.745 216.864 227.91 217.155 228.202C217.446 228.494 217.61 228.889 217.61 229.302C217.61 229.714 217.446 230.11 217.155 230.402C216.864 230.694 216.469 230.858 216.056 230.859Z" fill="#E6E6E6"/>
<path d="M179.358 210.447H181.012V274.203H61.3546V272.548H179.358V210.447Z" fill="#3F3D56"/>
<path d="M10.7534 284.672H54.594C57.446 284.672 60.1812 283.538 62.1978 281.521C64.2144 279.503 65.3474 276.767 65.3474 273.914C65.3474 271.061 64.2144 268.324 62.1978 266.307C60.1812 264.289 57.446 263.156 54.594 263.156H10.7534C7.9014 263.156 5.16624 264.289 3.14959 266.307C1.13294 268.324 0 271.061 0 273.914C0 276.767 1.13294 279.503 3.14959 281.521C5.16624 283.538 7.9014 284.672 10.7534 284.672Z" fill="#48AE46"/>
<path d="M181.337 215.251C186.794 215.251 191.218 210.825 191.218 205.366C191.218 199.906 186.794 195.48 181.337 195.48C175.88 195.48 171.456 199.906 171.456 205.366C171.456 210.825 175.88 215.251 181.337 215.251Z" fill="#48AE46"/>
<path d="M232.411 208.113C246.919 211.197 243.229 211.799 257.736 214.884L270.229 217.54C271.792 217.872 272.22 215.427 270.656 215.094C256.148 212.01 259.839 211.407 245.331 208.323L232.839 205.667C231.276 205.334 230.848 207.78 232.411 208.113Z" fill="#F2F2F2"/>
<path d="M265.826 200.895L282.338 220.393C282.939 220.977 283.442 221.655 283.824 222.4C284.139 223.24 283.462 223.59 282.757 223.864C280.725 224.525 278.654 225.061 276.556 225.469L264.197 228.571C262.646 228.96 263.488 231.298 265.025 230.912L275.789 228.21L281.171 226.86C282.696 226.477 284.469 226.188 285.582 224.963C287.919 222.391 284.795 219.474 283.188 217.576L275.998 209.085L267.875 199.493C266.851 198.284 264.795 199.676 265.826 200.895Z" fill="#F2F2F2"/>
<path d="M318.178 285.892C330.869 285.892 341.157 275.6 341.157 262.903C341.157 250.207 330.869 239.914 318.178 239.914C305.487 239.914 295.198 250.207 295.198 262.903C295.198 275.6 305.487 285.892 318.178 285.892Z" fill="#E6E6E6"/>
<path d="M315.938 282.961C325.586 282.961 333.407 275.137 333.407 265.484C333.407 255.832 325.586 248.007 315.938 248.007C306.29 248.007 298.468 255.832 298.468 265.484C298.468 275.137 306.29 282.961 315.938 282.961Z" fill="white"/>
<path d="M312.803 277.449C312.407 277.449 312.015 277.357 311.66 277.179C311.305 277.002 310.997 276.744 310.759 276.426L304.49 268.064C304.288 267.795 304.141 267.49 304.058 267.164C303.974 266.839 303.956 266.501 304.003 266.168C304.05 265.836 304.163 265.516 304.334 265.227C304.505 264.938 304.731 264.685 304.999 264.484C305.268 264.282 305.573 264.135 305.898 264.052C306.223 263.968 306.562 263.95 306.894 263.997C307.226 264.044 307.546 264.157 307.835 264.328C308.124 264.499 308.376 264.725 308.578 264.993L308.579 264.995L312.681 270.466L323.215 254.658C323.401 254.378 323.64 254.138 323.919 253.951C324.198 253.763 324.511 253.633 324.841 253.567C325.17 253.501 325.509 253.5 325.839 253.565C326.168 253.63 326.482 253.76 326.761 253.946C327.041 254.133 327.281 254.373 327.468 254.652C327.655 254.931 327.785 255.245 327.85 255.574C327.916 255.904 327.916 256.243 327.851 256.573C327.785 256.903 327.655 257.216 327.468 257.495L314.93 276.311C314.704 276.651 314.399 276.932 314.041 277.13C313.683 277.328 313.283 277.437 312.874 277.449C312.851 277.449 312.827 277.449 312.803 277.449Z" fill="#E6E6E6"/>
<path d="M532.747 286.586C533.487 286.15 534.123 285.558 534.609 284.851C535.095 284.143 535.421 283.338 535.562 282.491C535.704 281.644 535.658 280.776 535.428 279.949C535.198 279.122 534.789 278.355 534.231 277.702L552.682 245.447L541.856 246.035L525.595 277.293C524.562 278.304 523.935 279.658 523.834 281.101C523.733 282.543 524.164 283.972 525.045 285.117C525.927 286.263 527.198 287.045 528.617 287.316C530.037 287.586 531.506 287.326 532.747 286.586Z" fill="#FFB8B8"/>
<path d="M511.965 173.524C511.965 173.524 531.507 167.239 536.532 182.322C541.558 197.406 558.453 238.258 558.453 238.258L540.302 275.339L532.135 266.54L540.863 240.772L515.734 203.063L511.965 173.524Z" fill="#126D11"/>
<path d="M540.924 271.552C540.336 270.556 539.59 269.663 538.715 268.907L532.48 262.903L532.133 263.677C531.494 264.684 531.075 265.815 530.903 266.995C530.731 268.176 530.811 269.379 531.136 270.526C531.462 271.674 532.026 272.74 532.792 273.654C533.558 274.568 534.508 275.31 535.581 275.831C536.497 276.312 537.529 276.525 538.56 276.446C539.074 276.402 539.57 276.236 540.007 275.963C540.444 275.69 540.81 275.317 541.076 274.875C541.319 274.349 541.432 273.773 541.405 273.195C541.379 272.617 541.214 272.053 540.924 271.552Z" fill="#E6E6E6"/>
<path d="M317.979 293.831H316.324V357.587H372.289V355.932H317.979V293.831Z" fill="#3F3D56"/>
<path d="M433.643 357.298C433.641 354.446 432.507 351.711 430.491 349.694C428.475 347.677 425.741 346.543 422.89 346.54H379.049C376.197 346.54 373.462 347.673 371.446 349.691C369.429 351.708 368.296 354.445 368.296 357.298C368.296 360.151 369.429 362.887 371.446 364.905C373.462 366.923 376.197 368.056 379.049 368.056H422.89C425.741 368.053 428.475 366.919 430.491 364.902C432.507 362.885 433.641 360.15 433.643 357.298Z" fill="#48AE46"/>
<path d="M315.999 298.635C321.457 298.635 325.881 294.209 325.881 288.75C325.881 283.29 321.457 278.864 315.999 278.864C310.542 278.864 306.118 283.29 306.118 288.75C306.118 294.209 310.542 298.635 315.999 298.635Z" fill="#48AE46"/>
</g>
<defs>
<clipPath id="clip0_672_909">
<rect width="622" height="460" fill="white"/>
</clipPath>
</defs>
</svg>
