<svg width="100%" height="100%" viewBox="0 0 1280 345" fill="none" xmlns="http://www.w3.org/2000/svg">
<path fill-rule="evenodd" clip-rule="evenodd" d="M-87 89L-52 82C-16 75 54 60 125 60C196 60 267 75 337 60C408 45 479 0 549 0C620 0 691 45 762 97C832 149 903 208 974 216C1044 223 1115 179 1186 141C1257 104 1327 75 1363 60L1398 45V357H1363C1327 357 1257 357 1186 357C1115 357 1044 357 974 357C903 357 832 357 762 357C691 357 620 357 549 357C479 357 408 357 337 357C267 357 196 357 125 357C54 357 -16 357 -52 357H-87V89Z" fill="#E8F5E8"/>
</svg>
