<svg width="15" height="19" viewBox="0 0 15 19" fill="none" xmlns="http://www.w3.org/2000/svg">
<path d="M6.83625 0.252369C7.23716 -0.0136886 7.76199 -0.0136886 8.1629 0.252369L8.81164 0.678791C9.03032 0.820932 9.28544 0.89018 9.54421 0.875601L10.3205 0.828221C10.8016 0.799064 11.2535 1.06148 11.4686 1.49154L11.8185 2.18767C11.9351 2.42092 12.1246 2.6068 12.3542 2.72343L13.0576 3.07696C13.4877 3.29199 13.7501 3.74393 13.721 4.22502L13.6736 5.00132C13.659 5.26009 13.7282 5.51886 13.8704 5.73389L14.3005 6.38264C14.5665 6.78355 14.5665 7.30837 14.3005 7.70928L13.8704 8.36167C13.7282 8.58035 13.659 8.83547 13.6736 9.09424L13.721 9.87055C13.7501 10.3516 13.4877 10.8036 13.0576 11.0186L12.3615 11.3685C12.1283 11.4851 11.9424 11.6746 11.8258 11.9043L11.4722 12.6077C11.2572 13.0377 10.8053 13.3001 10.3242 13.271L9.54786 13.2236C9.28909 13.209 9.03032 13.2783 8.81529 13.4204L8.16654 13.8505C7.76563 14.1165 7.24081 14.1165 6.8399 13.8505L6.18751 13.4204C5.96883 13.2783 5.71371 13.209 5.45494 13.2236L4.67863 13.271C4.19754 13.3001 3.74561 13.0377 3.53057 12.6077L3.18069 11.9115C3.06406 11.6783 2.87454 11.4924 2.64493 11.3758L1.94151 11.0223C1.51145 10.8072 1.24903 10.3553 1.27819 9.87419L1.32557 9.09789C1.34015 8.83912 1.2709 8.58035 1.12876 8.36532L0.70234 7.71293C0.436282 7.31202 0.436282 6.78719 0.70234 6.38628L1.12876 5.73754C1.2709 5.51886 1.34015 5.26374 1.32557 5.00497L1.27819 4.22866C1.24903 3.74757 1.51145 3.29564 1.94151 3.0806L2.63764 2.73072C2.87089 2.61045 3.06042 2.42092 3.17704 2.18767L3.52693 1.49154C3.74196 1.06148 4.1939 0.799064 4.67499 0.828221L5.45129 0.875601C5.71006 0.89018 5.96883 0.820932 6.18386 0.678791L6.83625 0.252369ZM10.4153 7.04961C10.4153 6.27631 10.1081 5.53469 9.56129 4.98789C9.01449 4.44109 8.27287 4.1339 7.49958 4.1339C6.72628 4.1339 5.98466 4.44109 5.43786 4.98789C4.89106 5.53469 4.58387 6.27631 4.58387 7.04961C4.58387 7.8229 4.89106 8.56452 5.43786 9.11132C5.98466 9.65812 6.72628 9.96531 7.49958 9.96531C8.27287 9.96531 9.01449 9.65812 9.56129 9.11132C10.1081 8.56452 10.4153 7.8229 10.4153 7.04961ZM0.549265 16.1539L2.1201 12.4181C2.12739 12.4218 2.13103 12.4254 2.13468 12.4327L2.48456 13.1288C2.91099 13.9744 3.79663 14.4883 4.74424 14.4336L5.52054 14.3862C5.52783 14.3862 5.53876 14.3862 5.54605 14.3935L6.1948 14.8236C6.38067 14.9439 6.57748 15.0386 6.78158 15.1042L5.4112 18.3589C5.32738 18.5593 5.1415 18.6942 4.92647 18.7124C4.71143 18.7306 4.50369 18.6322 4.38706 18.45L3.21349 16.6532L1.16885 16.9557C0.961109 16.9849 0.753365 16.901 0.622158 16.737C0.490951 16.573 0.465439 16.3471 0.545621 16.1539H0.549265ZM9.58795 18.3552L8.21757 15.1042C8.42167 15.0386 8.61848 14.9475 8.80435 14.8236L9.4531 14.3935C9.46039 14.3899 9.46768 14.3862 9.47861 14.3862L10.2549 14.4336C11.2025 14.4883 12.0882 13.9744 12.5146 13.1288L12.8645 12.4327C12.8681 12.4254 12.8718 12.4218 12.8791 12.4181L14.4535 16.1539C14.5337 16.3471 14.5046 16.5694 14.377 16.737C14.2494 16.9047 14.038 16.9885 13.8303 16.9557L11.7857 16.6532L10.6121 18.4464C10.4955 18.6286 10.2877 18.727 10.0727 18.7088C9.85765 18.6906 9.67177 18.5521 9.58795 18.3552Z" fill="black"/>
</svg>
