<svg width="398" height="558" viewBox="0 0 398 558" fill="none" xmlns="http://www.w3.org/2000/svg">
<path fill-rule="evenodd" clip-rule="evenodd" d="M0 159.827H186.465V346.291H0V159.827ZM0 371.362V557.827H186.465V371.362H0ZM211.535 371.362V557.827H398V371.362H211.535ZM398 346.291V159.827H211.535V346.291H398Z" fill="#1A9A18"/>
<path d="M180.696 140.584L100.402 140.274L170.657 60.7911L180.696 140.584Z" fill="#1A9A18"/>
<circle cx="101.296" cy="70.3172" r="69.9572" fill="#1A9A18"/>
<path d="M180.696 140.584L100.402 140.274L170.657 60.7911L180.696 140.584Z" fill="#1A9A18"/>
<circle cx="101.296" cy="70.3172" r="69.9572" fill="#1A9A18"/>
<path d="M213.821 139.962L294.117 139.654L223.86 60.3184L213.821 139.962Z" fill="#1A9A18"/>
<ellipse cx="69.9592" cy="69.8268" rx="69.9592" ry="69.8268" transform="matrix(-1 0 0 1 363.183 0)" fill="#1A9A18"/>
</svg>
