<svg width="29" height="29" viewBox="0 0 29 29" fill="none" xmlns="http://www.w3.org/2000/svg">
<rect width="29" height="29" rx="14.5" fill="#1A9A18"/>
<path d="M9.8732 11.1412C10.1352 8.7836 12.1279 7 14.5 7V7C16.8721 7 18.8648 8.7836 19.1268 11.1412L19.3366 13.0297C19.4443 13.9985 19.7596 14.9327 20.2611 15.7685L20.7428 16.5714C21.0455 17.0759 21.1969 17.3281 21.2246 17.5315C21.2854 17.9772 21.0412 18.4087 20.6277 18.5858C20.439 18.6667 20.1448 18.6667 19.5565 18.6667H9.44353C8.85515 18.6667 8.56097 18.6667 8.37233 18.5858C7.95885 18.4087 7.71456 17.9772 7.77537 17.5315C7.80311 17.3281 7.95447 17.0759 8.25718 16.5714L8.73888 15.7685C9.24039 14.9327 9.55572 13.9985 9.66337 13.0297L9.8732 11.1412Z" stroke="#F3F3F3" stroke-width="2"/>
<path d="M11.1668 18.6667C11.1668 19.1044 11.253 19.5379 11.4206 19.9423C11.5881 20.3467 11.8336 20.7142 12.1431 21.0237C12.4527 21.3332 12.8201 21.5787 13.2246 21.7463C13.629 21.9138 14.0624 22 14.5002 22C14.9379 22 15.3714 21.9138 15.7758 21.7463C16.1802 21.5787 16.5477 21.3332 16.8572 21.0237C17.1667 20.7142 17.4122 20.3467 17.5798 19.9423C17.7473 19.5379 17.8335 19.1044 17.8335 18.6667" stroke="#F3F3F3" stroke-width="2" stroke-linecap="round"/>
</svg>
