<svg width="207" height="195" viewBox="0 0 207 195" fill="none" xmlns="http://www.w3.org/2000/svg">
<g clip-path="url(#clip0_985_1259)">
<path d="M70.0722 87.6871C61.4912 87.6871 53.1028 85.1157 45.9679 80.2982C38.833 75.4806 33.272 68.6331 29.9882 60.6218C26.7043 52.6104 25.8451 43.7949 27.5192 35.2901C29.1933 26.7853 33.3255 18.9731 39.3932 12.8415C45.461 6.70987 53.1917 2.53417 61.6079 0.842461C70.0241 -0.849252 78.7477 0.018998 86.6756 3.33741C94.6035 6.65583 101.38 12.2754 106.147 19.4854C110.914 26.6954 113.459 35.1721 113.459 43.8436C113.446 55.4676 108.871 66.6117 100.737 74.8311C92.6031 83.0505 81.5751 87.674 70.0722 87.6871ZM70.0722 0.690471C61.6263 0.690471 53.37 3.22136 46.3475 7.96308C39.325 12.7048 33.8515 19.4444 30.6194 27.3296C27.3873 35.2148 26.5416 43.8914 28.1894 52.2623C29.8371 60.6332 33.9042 68.3224 39.8764 74.3574C45.8485 80.3925 53.4576 84.5024 61.7412 86.1675C70.0249 87.8326 78.6111 86.978 86.4141 83.7118C94.2171 80.4457 100.886 74.9146 105.579 67.8182C110.271 60.7217 112.776 52.3784 112.776 43.8436C112.776 32.3987 108.277 21.4225 100.268 13.3297C92.2597 5.23695 81.3979 0.690471 70.0722 0.690471Z" fill="#F2F2F2"/>
<path d="M42.8659 45.4151C41.6602 40.9731 51.3845 37.1639 53.9381 40.7411C54.2932 40.2326 55.6055 39.9237 56.2076 40.0797C56.7969 40.2774 57.3416 40.5913 57.8101 41.0032C58.4893 41.5306 59.1933 42.0766 59.6101 42.8348C60.0301 43.5899 60.0949 44.6195 59.5299 45.2748C59.0822 45.7958 57.7606 46.1328 57.0875 46.2701C56.6182 46.3668 56.223 46.4448 55.8834 46.501C55.5749 46.0518 55.4327 45.5072 55.482 44.9627C55.2534 45.1186 55.0617 45.3236 54.9208 45.5631C54.7799 45.8026 54.6931 46.0707 54.6668 46.3481C54.6576 46.4635 58.4615 60.6072 58.4615 60.6072C58.0045 60.8701 57.5237 61.0884 57.0258 61.2593C56.0407 59.7379 55.2862 58.0763 54.7872 56.3295C54.6726 57.4975 54.6871 58.6748 54.8305 59.8396C54.9067 60.4928 55.016 61.1416 55.1578 61.7835C50.6374 62.7695 43.8385 62.445 40.8805 58.2515L40.879 58.1994C40.8767 58.0339 40.8175 57.8743 40.7116 57.748C40.6057 57.6217 40.4596 57.5366 40.2984 57.5072C40.1372 57.4778 39.9708 57.5059 39.8279 57.5868C39.685 57.6677 39.5743 57.7963 39.5149 57.9506C39.4431 58.1356 39.3771 58.2957 39.3181 58.4231C38.4567 55.3092 39.5714 51.7054 42.8659 45.4151Z" fill="#2F2E41"/>
<path d="M64.183 187.497L67.5511 187.468L69.042 174.035L64.0713 174.077L64.183 187.497Z" fill="#A0616A"/>
<path d="M74.3113 191.664L68.9321 187.977L68.9118 185.541L67.755 185.619L64.1694 185.869L63.2904 185.928L62.6523 194.536L65.179 194.513L65.6096 192.1L66.7819 194.501L73.4782 194.444C73.7992 194.442 74.1109 194.335 74.3678 194.141C74.6248 193.946 74.8135 193.674 74.9065 193.363C74.9996 193.053 74.992 192.721 74.8849 192.415C74.7778 192.109 74.5768 191.846 74.3113 191.664Z" fill="#2F2E41"/>
<path d="M30.6001 186.17L33.9299 186.682L37.5102 173.657L32.5955 172.902L30.6001 186.17Z" fill="#A0616A"/>
<path d="M39.9461 191.907L35.2136 187.405L35.5757 184.997L34.4213 184.889L30.8419 184.561L29.9647 184.478L27.9839 192.875L30.4822 193.257L31.2861 190.943L32.0667 193.502L38.6871 194.519C39.0045 194.568 39.329 194.513 39.6132 194.362C39.8974 194.211 40.1265 193.972 40.267 193.681C40.4076 193.389 40.4522 193.06 40.3945 192.741C40.3368 192.422 40.1797 192.129 39.9461 191.907Z" fill="#2F2E41"/>
<path d="M62.6344 93.6436L72.1838 110.927C72.1838 110.927 71.7853 146.473 73.0544 147.791C74.3235 149.11 75.4726 150.292 74.3235 150.282C73.1745 150.271 71.7837 153.096 71.7837 153.096L69.407 179.804H63.4139C63.4139 179.804 59.1968 164.054 60.0957 155.072L52.9959 122.25C52.9959 122.25 47.8953 153.29 46.9761 154.219C46.0568 155.148 45.5023 155.141 46.469 156.073C47.4357 157.006 46.469 159.114 46.469 159.114L36.3918 180.249L30.9258 179.552C30.9258 179.552 31.8734 162.298 35.1732 154.891V119.887C34.9247 122.888 46.5505 92.5124 39.4412 94.7923C41.6904 94.071 62.6344 93.6436 62.6344 93.6436Z" fill="#2F2E41"/>
<path d="M54.5178 60.6874L44.8102 58.6064L42.8827 62.5271L36.3918 66.3246C36.3918 66.3246 40.5758 83.6121 40.5519 86.0435C40.4913 92.2164 30.7172 106.054 38.0999 104.99C45.4826 103.925 46.9822 99.4661 49.3522 100.171C59.1302 103.08 70.7509 102.772 66.7966 98.7757C62.8422 94.7797 63.7259 68.1795 63.7259 68.1795L56.0667 64.5218L54.5178 60.6874Z" fill="#1A9A18"/>
<path d="M36.2082 123.468C36.5982 122.998 36.7914 122.393 36.7466 121.781C36.7018 121.17 36.4225 120.6 35.9682 120.193C35.8746 120.112 35.7745 120.038 35.6689 119.974L37.292 111.924L33.5397 109.655L32.496 120.925C32.2651 121.388 32.1925 121.915 32.2893 122.425C32.3862 122.934 32.6472 123.397 33.0316 123.74C33.4771 124.131 34.0579 124.327 34.6463 124.284C35.2346 124.242 35.7823 123.966 36.1688 123.516C36.1821 123.5 36.1953 123.484 36.2082 123.468Z" fill="#A0616A"/>
<path d="M34.1356 85.8028L34.4477 71.1342C34.4673 70.2121 34.6693 69.3033 35.0418 68.4614C35.4143 67.6194 35.9498 66.8612 36.6167 66.2316C37.2837 65.6019 38.0685 65.1135 38.9251 64.7951C39.7817 64.4767 40.6927 64.3347 41.6044 64.3776C44.5705 64.5176 43.7802 65.7153 44.5681 68.6085C45.8483 73.3114 46.3407 76.0298 46.0318 76.6882C45.9272 76.9111 45.817 77.1247 45.7109 77.3301C45.1648 78.3884 44.7703 79.1531 45.773 79.8856C46.1696 80.1506 46.6015 80.3573 47.0558 80.4993C47.5083 80.6617 47.8354 80.7791 47.8584 81.0377C47.8805 81.288 47.601 81.5475 46.8268 81.9951C44.7482 83.1973 42.9457 90.3823 42.9281 90.4533L36.8964 116.022L32.0913 115.781L34.1356 85.8028Z" fill="#1A9A18"/>
<path d="M94.5969 105.844C93.9959 105.758 93.452 105.438 93.081 104.952C92.7099 104.467 92.541 103.854 92.6101 103.245C92.626 103.121 92.6521 102.999 92.688 102.88L86.1587 97.9855L87.4506 93.7637L95.6777 101.445C96.1557 101.634 96.5584 101.978 96.823 102.422C97.0876 102.866 97.1991 103.387 97.1403 103.902C97.104 104.195 97.011 104.478 96.8666 104.734C96.7222 104.991 96.5292 105.216 96.2986 105.397C96.0681 105.578 95.8044 105.712 95.5228 105.79C95.2412 105.868 94.9471 105.889 94.6574 105.853C94.6372 105.85 94.617 105.847 94.5969 105.844Z" fill="#A0616A"/>
<path d="M92.5783 97.3443L89.1621 100.768L67.7708 85.8133C67.7108 85.7723 61.6196 81.6426 59.2781 82.1513C58.4062 82.3408 58.0266 82.3364 57.8776 82.1352C57.7237 81.9273 57.8895 81.6192 58.1188 81.1928C58.363 80.7805 58.5478 80.3351 58.6677 79.8701C58.9295 78.6482 58.1305 78.3455 57.0245 77.9267C56.8098 77.8454 56.5866 77.7608 56.3614 77.6656C55.6963 77.3843 54.2655 75.029 52.1092 70.6652C50.7828 67.9804 49.403 67.6227 51.5176 65.5162C52.1677 64.8688 52.9394 64.3595 53.7873 64.0181C54.6352 63.6768 55.5421 63.5104 56.4546 63.5287C57.3671 63.547 58.2668 63.7497 59.1006 64.1247C59.9344 64.4998 60.6855 65.0397 61.3097 65.7126L71.2392 76.4171L92.5783 97.3443Z" fill="#1A9A18"/>
<path d="M50.4219 58.4594C54.796 58.4594 58.3419 54.8761 58.3419 50.456C58.3419 46.0359 54.796 42.4526 50.4219 42.4526C46.0478 42.4526 42.502 46.0359 42.502 50.456C42.502 54.8761 46.0478 58.4594 50.4219 58.4594Z" fill="#A0616A"/>
<path d="M38.5431 46.0392C37.3374 41.5971 47.0618 37.788 49.6154 41.3652C49.9705 40.8566 51.2827 40.5477 51.8848 40.7037C52.4741 40.9015 53.0188 41.2154 53.4873 41.6273C54.1666 42.1546 54.8705 42.7006 55.2874 43.4588C55.7073 44.2139 55.7721 45.2436 55.2071 45.8988C54.7594 46.4198 53.4379 46.7568 52.7648 46.8941C52.2955 46.9908 51.9002 47.0688 51.5606 47.125C51.2521 46.6758 51.11 46.1312 51.1592 45.5868C50.9306 45.7426 50.739 45.9476 50.598 46.1871C50.4571 46.4267 50.3704 46.6947 50.3441 46.9721C50.3348 47.0876 54.1388 61.2312 54.1388 61.2312C53.6817 61.4941 53.201 61.7124 52.703 61.8833C51.7179 60.3619 50.9634 58.7003 50.4645 56.9535C50.3498 58.1215 50.3643 59.2989 50.5077 60.4637C50.584 61.1168 50.6932 61.7656 50.835 62.4075C46.3147 63.3935 39.5157 63.069 36.5577 58.8755L36.5562 58.8234C36.5539 58.6579 36.4948 58.4983 36.3888 58.3721C36.2829 58.2458 36.1368 58.1607 35.9756 58.1313C35.8144 58.1019 35.6481 58.13 35.5052 58.2109C35.3622 58.2917 35.2516 58.4203 35.1921 58.5746C35.1204 58.7596 35.0543 58.9197 34.9954 59.0471C34.134 55.9332 35.2486 52.3294 38.5431 46.0392Z" fill="#2F2E41"/>
<path d="M18.5366 188.894C18.3778 188.901 18.2206 188.859 18.0863 188.773C17.952 188.687 17.847 188.562 17.7857 188.413C17.7244 188.265 17.7096 188.102 17.7434 187.945C17.7772 187.788 17.858 187.645 17.9747 187.536L18.0278 187.322C18.0208 187.305 18.0138 187.288 18.0067 187.271C17.8467 186.889 17.5787 186.564 17.2362 186.335C16.8937 186.107 16.4921 185.986 16.0818 185.988C15.6715 185.989 15.2707 186.113 14.93 186.344C14.5892 186.575 14.3235 186.903 14.1663 187.286C13.5382 188.814 12.7385 190.346 12.5416 191.962C12.4549 192.677 12.4915 193.401 12.6497 194.103C11.1745 190.851 10.4084 187.316 10.4035 183.739C10.4032 182.841 10.4525 181.944 10.5513 181.052C10.633 180.32 10.7463 179.594 10.8912 178.873C11.6819 174.962 13.3796 171.295 15.8448 168.175C17.038 167.517 18.0029 166.505 18.6096 165.276C18.8294 164.834 18.9847 164.363 19.0707 163.876C18.9361 163.894 18.5632 161.822 18.6648 161.695C18.4772 161.408 18.1415 161.265 17.9366 160.984C16.9178 159.588 15.5141 159.832 14.7813 161.729C13.2158 162.527 13.2007 163.851 14.1612 165.125C14.7723 165.935 14.8563 167.031 15.3925 167.898C15.3373 167.97 15.2799 168.039 15.2248 168.11C14.2164 169.421 13.3375 170.828 12.6007 172.311C12.7799 170.649 12.566 168.968 11.9768 167.406C11.3795 165.95 10.2601 164.724 9.27433 163.465C9.01361 163.127 8.65954 162.874 8.25689 162.74C7.85423 162.605 7.42107 162.594 7.01215 162.708C6.60323 162.822 6.23691 163.055 5.95949 163.38C5.68208 163.704 5.50602 164.104 5.45358 164.529C5.45156 164.548 5.44959 164.567 5.44767 164.585C5.59408 164.669 5.73741 164.757 5.87765 164.851C6.05382 164.97 6.19033 165.14 6.26929 165.338C6.34825 165.537 6.36597 165.755 6.32014 165.964C6.27431 166.173 6.16707 166.364 6.01245 166.51C5.85784 166.656 5.66307 166.752 5.45367 166.785L5.43223 166.788C5.48439 167.321 5.57659 167.85 5.70804 168.369C4.4434 173.311 7.17365 175.111 11.0721 175.192C11.1581 175.237 11.242 175.281 11.3281 175.324C10.5878 177.443 10.1235 179.652 9.94677 181.892C9.84672 183.215 9.85263 184.543 9.96443 185.864L9.95781 185.817C9.67535 184.348 8.89986 183.022 7.76229 182.064C6.07274 180.662 3.68572 180.145 1.86299 179.018C1.66928 178.892 1.44403 178.825 1.21383 178.824C0.983622 178.824 0.758064 178.89 0.563746 179.015C0.369427 179.139 0.214462 179.318 0.117122 179.528C0.0197814 179.739 -0.0158754 179.974 0.0143667 180.204L0.021821 180.254C0.293531 180.365 0.558087 180.494 0.81394 180.639C0.960361 180.723 1.10369 180.811 1.24392 180.905C1.4201 181.024 1.55661 181.194 1.63556 181.393C1.71452 181.591 1.73224 181.81 1.68641 182.019C1.64058 182.228 1.53334 182.418 1.37873 182.564C1.22411 182.711 1.02934 182.806 0.819935 182.839L0.798479 182.842C0.783037 182.845 0.769779 182.847 0.754368 182.849C1.21863 183.969 1.87024 185 2.68065 185.897C3.47139 190.211 6.86764 190.621 10.5006 189.364H10.5028C10.9014 191.115 11.4789 192.819 12.2261 194.448H18.3823C18.4044 194.379 18.4242 194.308 18.4441 194.239C17.8742 194.275 17.3022 194.24 16.7406 194.136C17.1974 193.57 17.6541 192.999 18.1109 192.433C18.1211 192.422 18.1307 192.411 18.1396 192.399C18.3713 192.109 18.6052 191.822 18.8368 191.532L18.837 191.531C18.8493 190.643 18.7482 189.756 18.5366 188.894Z" fill="#F2F2F2"/>
<path d="M0.228029 194.589C0.22787 194.643 0.238274 194.697 0.258649 194.746C0.279025 194.796 0.308972 194.842 0.346756 194.88C0.384541 194.918 0.42942 194.948 0.478818 194.969C0.528216 194.989 0.581153 195 0.634587 195H87.1654C87.2732 195 87.3766 194.957 87.4528 194.88C87.5291 194.802 87.5719 194.698 87.5719 194.589C87.5719 194.48 87.5291 194.376 87.4528 194.299C87.3766 194.221 87.2732 194.178 87.1654 194.178H0.634587C0.581154 194.178 0.528215 194.189 0.478818 194.209C0.429421 194.23 0.384541 194.26 0.346756 194.298C0.308972 194.336 0.279025 194.382 0.258649 194.432C0.238273 194.482 0.227872 194.535 0.228029 194.589Z" fill="#CCCCCC"/>
<path d="M189.31 19.7192H102.017C100.98 19.7192 99.9544 19.9255 98.9971 20.3262C98.0399 20.7268 97.1701 21.3141 96.4374 22.0545C95.7048 22.7949 95.1236 23.6739 94.7271 24.6412C94.3306 25.6085 94.1265 26.6454 94.1265 27.6924V160.883C94.1265 162.998 94.9577 165.026 96.4374 166.521C97.9171 168.016 99.924 168.856 102.017 168.856H189.31C191.403 168.856 193.41 168.016 194.889 166.521C196.369 165.026 197.2 162.998 197.2 160.883C208.78 115.619 209.136 71.1958 197.2 27.6924C197.2 25.5778 196.369 23.5498 194.889 22.0545C193.41 20.5593 191.403 19.7192 189.31 19.7192ZM104.668 150.403C104.668 150.745 104.534 151.074 104.294 151.316C104.054 151.558 103.73 151.694 103.391 151.694H100.089C99.7502 151.694 99.4253 151.558 99.1858 151.316C98.9462 151.074 98.8116 150.745 98.8116 150.403V147.066C98.8116 146.724 98.9462 146.396 99.1858 146.154C99.4253 145.912 99.7502 145.776 100.089 145.776H103.391C103.73 145.776 104.054 145.912 104.294 146.154C104.534 146.396 104.668 146.724 104.668 147.066V150.403ZM104.668 137.235C104.668 137.577 104.534 137.906 104.294 138.148C104.054 138.39 103.73 138.526 103.391 138.526H100.089C99.7502 138.526 99.4253 138.39 99.1858 138.148C98.9462 137.906 98.8116 137.577 98.8116 137.235V133.899C98.8116 133.729 98.8447 133.561 98.9089 133.405C98.9731 133.248 99.0672 133.106 99.1858 132.986C99.3044 132.866 99.4452 132.771 99.6002 132.706C99.7551 132.641 99.9212 132.608 100.089 132.608H103.391C103.559 132.608 103.725 132.641 103.88 132.706C104.035 132.771 104.175 132.866 104.294 132.986C104.413 133.106 104.507 133.248 104.571 133.405C104.635 133.561 104.668 133.729 104.668 133.899V137.235ZM104.668 124.067C104.668 124.41 104.534 124.738 104.294 124.98C104.054 125.222 103.73 125.358 103.391 125.358H100.089C99.7502 125.358 99.4253 125.222 99.1858 124.98C98.9462 124.738 98.8116 124.41 98.8116 124.067V120.731C98.8116 120.388 98.9462 120.06 99.1858 119.818C99.4253 119.576 99.7502 119.44 100.089 119.44H103.391C103.73 119.44 104.054 119.576 104.294 119.818C104.534 120.06 104.668 120.388 104.668 120.731V124.067ZM104.668 110.899C104.668 111.242 104.534 111.57 104.294 111.812C104.054 112.054 103.73 112.19 103.391 112.19H100.089C99.7502 112.19 99.4253 112.054 99.1858 111.812C98.9462 111.57 98.8116 111.242 98.8116 110.899V107.563C98.8116 107.22 98.9462 106.892 99.1858 106.65C99.4253 106.408 99.7502 106.272 100.089 106.272H103.391C103.73 106.272 104.054 106.408 104.294 106.65C104.534 106.892 104.668 107.22 104.668 107.563V110.899ZM104.668 97.7315C104.668 98.0739 104.534 98.4022 104.294 98.6442C104.054 98.8863 103.73 99.0223 103.391 99.0223H100.089C99.7502 99.0223 99.4253 98.8863 99.1858 98.6442C98.9462 98.4022 98.8116 98.0739 98.8116 97.7315V94.395C98.8116 94.0526 98.9462 93.7243 99.1858 93.4822C99.4253 93.2402 99.7502 93.1042 100.089 93.1042H103.391C103.73 93.1042 104.054 93.2402 104.294 93.4822C104.534 93.7243 104.668 94.0526 104.668 94.395V97.7315ZM104.668 84.5637C104.668 84.906 104.534 85.2343 104.294 85.4764C104.054 85.7185 103.73 85.8544 103.391 85.8544H100.089C99.7502 85.8544 99.4253 85.7185 99.1858 85.4764C98.9462 85.2343 98.8116 84.906 98.8116 84.5637V81.2271C98.8116 80.8848 98.9462 80.5565 99.1858 80.3144C99.4253 80.0723 99.7502 79.9363 100.089 79.9363H103.391C103.73 79.9363 104.054 80.0723 104.294 80.3144C104.534 80.5565 104.668 80.8848 104.668 81.2271V84.5637ZM104.668 71.3958C104.668 71.7381 104.534 72.0665 104.294 72.3085C104.054 72.5506 103.73 72.6866 103.391 72.6866H100.089C99.7502 72.6866 99.4253 72.5506 99.1858 72.3085C98.9462 72.0665 98.8116 71.7381 98.8116 71.3958V68.0592C98.8116 67.7169 98.9462 67.3886 99.1858 67.1465C99.4253 66.9044 99.7502 66.7685 100.089 66.7685H103.391C103.73 66.7685 104.054 66.9044 104.294 67.1465C104.534 67.3886 104.668 67.7169 104.668 68.0592V71.3958ZM104.668 58.2279C104.668 58.5703 104.534 58.8986 104.294 59.1407C104.054 59.3827 103.73 59.5187 103.391 59.5187H100.089C99.7502 59.5187 99.4253 59.3827 99.1858 59.1407C98.9462 58.8986 98.8116 58.5703 98.8116 58.2279V54.8914C98.8116 54.549 98.9462 54.2207 99.1858 53.9787C99.4253 53.7366 99.7502 53.6006 100.089 53.6006H103.391C103.73 53.6006 104.054 53.7366 104.294 53.9787C104.534 54.2207 104.668 54.549 104.668 54.8914V58.2279ZM104.668 45.0601C104.668 45.4024 104.534 45.7307 104.294 45.9728C104.054 46.2149 103.73 46.3509 103.391 46.3509H100.089C99.7502 46.3509 99.4253 46.2149 99.1858 45.9728C98.9462 45.7307 98.8116 45.4024 98.8116 45.0601V41.7235C98.8116 41.3812 98.9462 41.0529 99.1858 40.8108C99.4253 40.5687 99.7502 40.4327 100.089 40.4327H103.391C103.73 40.4327 104.054 40.5687 104.294 40.8108C104.534 41.0529 104.668 41.3812 104.668 41.7235V45.0601Z" fill="#F2F2F2"/>
<path d="M103.923 26.8213H99.5571C99.1456 26.8213 98.812 27.1584 98.812 27.5743V31.9865C98.812 32.4023 99.1456 32.7394 99.5571 32.7394H103.923C104.335 32.7394 104.668 32.4023 104.668 31.9865V27.5743C104.668 27.1584 104.335 26.8213 103.923 26.8213Z" fill="#1A9A18"/>
<path d="M180.217 43.7373H116.464C116.374 43.7373 116.287 43.701 116.223 43.6362C116.159 43.5715 116.123 43.4837 116.123 43.3921C116.123 43.3005 116.159 43.2127 116.223 43.148C116.287 43.0833 116.374 43.0469 116.464 43.0469H180.217C180.307 43.0469 180.394 43.0833 180.458 43.148C180.522 43.2127 180.558 43.3005 180.558 43.3921C180.558 43.4837 180.522 43.5715 180.458 43.6362C180.394 43.701 180.307 43.7373 180.217 43.7373Z" fill="#E6E6E6"/>
<path d="M180.216 30.7173H162.061C161.971 30.7173 161.884 30.6809 161.82 30.6162C161.756 30.5514 161.72 30.4636 161.72 30.3721C161.72 30.2805 161.756 30.1927 161.82 30.128C161.884 30.0632 161.971 30.0269 162.061 30.0269H180.216C180.307 30.0269 180.394 30.0632 180.458 30.128C180.522 30.1927 180.558 30.2805 180.558 30.3721C180.558 30.4636 180.522 30.5514 180.458 30.6162C180.394 30.6809 180.307 30.7173 180.216 30.7173Z" fill="#E6E6E6"/>
<path d="M180.217 56.7569H116.464C116.374 56.7569 116.287 56.7205 116.223 56.6557C116.159 56.591 116.123 56.5032 116.123 56.4116C116.123 56.3201 116.159 56.2323 116.223 56.1675C116.287 56.1028 116.374 56.0664 116.464 56.0664H180.217C180.307 56.0664 180.394 56.1028 180.458 56.1675C180.522 56.2323 180.558 56.3201 180.558 56.4116C180.558 56.5032 180.522 56.591 180.458 56.6557C180.394 56.7205 180.307 56.7569 180.217 56.7569Z" fill="#E6E6E6"/>
<path d="M180.217 69.7769H116.464C116.374 69.7769 116.287 69.7405 116.223 69.6758C116.159 69.611 116.123 69.5232 116.123 69.4317C116.123 69.3401 116.159 69.2523 116.223 69.1875C116.287 69.1228 116.374 69.0864 116.464 69.0864H180.217C180.307 69.0864 180.394 69.1228 180.458 69.1875C180.522 69.2523 180.558 69.3401 180.558 69.4317C180.558 69.5232 180.522 69.611 180.458 69.6758C180.394 69.7405 180.307 69.7769 180.217 69.7769Z" fill="#E6E6E6"/>
<path d="M180.217 82.7969H116.464C116.374 82.7969 116.287 82.7605 116.223 82.6958C116.159 82.631 116.123 82.5432 116.123 82.4517C116.123 82.3601 116.159 82.2723 116.223 82.2076C116.287 82.1428 116.374 82.1064 116.464 82.1064H180.217C180.307 82.1064 180.394 82.1428 180.458 82.2076C180.522 82.2723 180.558 82.3601 180.558 82.4517C180.558 82.5432 180.522 82.631 180.458 82.6958C180.394 82.7605 180.307 82.7969 180.217 82.7969Z" fill="#E6E6E6"/>
<path d="M180.217 95.8169H116.464C116.374 95.8169 116.287 95.7805 116.223 95.7158C116.159 95.6511 116.123 95.5632 116.123 95.4717C116.123 95.3801 116.159 95.2923 116.223 95.2276C116.287 95.1628 116.374 95.1265 116.464 95.1265H180.217C180.307 95.1265 180.394 95.1628 180.458 95.2276C180.522 95.2923 180.558 95.3801 180.558 95.4717C180.558 95.5632 180.522 95.6511 180.458 95.7158C180.394 95.7805 180.307 95.8169 180.217 95.8169Z" fill="#E6E6E6"/>
<path d="M180.217 108.836H116.464C116.374 108.836 116.287 108.8 116.223 108.735C116.159 108.671 116.123 108.583 116.123 108.491C116.123 108.4 116.159 108.312 116.223 108.247C116.287 108.182 116.374 108.146 116.464 108.146H180.217C180.307 108.146 180.394 108.182 180.458 108.247C180.522 108.312 180.558 108.4 180.558 108.491C180.558 108.583 180.522 108.671 180.458 108.735C180.394 108.8 180.307 108.836 180.217 108.836Z" fill="#E6E6E6"/>
<path d="M180.217 121.856H116.464C116.374 121.856 116.287 121.82 116.223 121.755C116.159 121.691 116.123 121.603 116.123 121.511C116.123 121.42 116.159 121.332 116.223 121.267C116.287 121.202 116.374 121.166 116.464 121.166H180.217C180.307 121.166 180.394 121.202 180.458 121.267C180.522 121.332 180.558 121.42 180.558 121.511C180.558 121.603 180.522 121.691 180.458 121.755C180.394 121.82 180.307 121.856 180.217 121.856Z" fill="#E6E6E6"/>
<path d="M180.217 134.876H116.464C116.374 134.876 116.287 134.84 116.223 134.775C116.159 134.711 116.123 134.623 116.123 134.531C116.123 134.44 116.159 134.352 116.223 134.287C116.287 134.222 116.374 134.186 116.464 134.186H180.217C180.307 134.186 180.394 134.222 180.458 134.287C180.522 134.352 180.558 134.44 180.558 134.531C180.558 134.623 180.522 134.711 180.458 134.775C180.394 134.84 180.307 134.876 180.217 134.876Z" fill="#E6E6E6"/>
<path d="M180.217 147.897H116.464C116.374 147.897 116.287 147.86 116.223 147.795C116.159 147.731 116.123 147.643 116.123 147.551C116.123 147.46 116.159 147.372 116.223 147.307C116.287 147.242 116.374 147.206 116.464 147.206H180.217C180.307 147.206 180.394 147.242 180.458 147.307C180.522 147.372 180.558 147.46 180.558 147.551C180.558 147.643 180.522 147.731 180.458 147.795C180.394 147.86 180.307 147.897 180.217 147.897Z" fill="#E6E6E6"/>
<path d="M170.765 40.6975H126.798C126.626 40.6977 126.457 40.6639 126.299 40.5979C126.14 40.5319 125.997 40.435 125.875 40.3128C125.754 40.1905 125.658 40.0454 125.592 39.8856C125.527 39.7258 125.493 39.5545 125.493 39.3815C125.493 39.2085 125.527 39.0371 125.592 38.8773C125.658 38.7175 125.754 38.5724 125.875 38.4501C125.997 38.3279 126.14 38.231 126.299 38.165C126.457 38.099 126.626 38.0652 126.798 38.0654H170.765C171.11 38.066 171.441 38.2049 171.685 38.4516C171.929 38.6984 172.066 39.0328 172.066 39.3815C172.066 39.7301 171.929 40.0645 171.685 40.3113C171.441 40.558 171.11 40.6969 170.765 40.6975Z" fill="#CCCCCC"/>
<path d="M170.765 53.7175H126.797C126.452 53.7175 126.121 53.5788 125.877 53.332C125.632 53.0852 125.495 52.7505 125.495 52.4015C125.495 52.0524 125.632 51.7177 125.877 51.4709C126.121 51.2241 126.452 51.0854 126.797 51.0854H170.765C171.111 51.0854 171.442 51.2241 171.686 51.4709C171.93 51.7177 172.068 52.0524 172.068 52.4015C172.068 52.7505 171.93 53.0852 171.686 53.332C171.442 53.5788 171.111 53.7175 170.765 53.7175Z" fill="#CCCCCC"/>
<path d="M170.765 66.7375H126.798C126.626 66.7378 126.457 66.7039 126.299 66.6379C126.14 66.5719 125.997 66.475 125.875 66.3528C125.754 66.2306 125.658 66.0854 125.592 65.9256C125.527 65.7658 125.493 65.5945 125.493 65.4215C125.493 65.2485 125.527 65.0772 125.592 64.9174C125.658 64.7576 125.754 64.6124 125.875 64.4902C125.997 64.3679 126.14 64.271 126.299 64.205C126.457 64.139 126.626 64.1052 126.798 64.1055H170.765C171.11 64.106 171.441 64.2449 171.685 64.4917C171.929 64.7384 172.066 65.0728 172.066 65.4215C172.066 65.7701 171.929 66.1046 171.685 66.3513C171.441 66.598 171.11 66.7369 170.765 66.7375Z" fill="#CCCCCC"/>
<path d="M170.765 79.7575H126.797C126.452 79.7575 126.121 79.6189 125.877 79.3721C125.632 79.1253 125.495 78.7905 125.495 78.4415C125.495 78.0925 125.632 77.7577 125.877 77.5109C126.121 77.2641 126.452 77.1255 126.797 77.1255H170.765C171.111 77.1255 171.442 77.2641 171.686 77.5109C171.93 77.7577 172.068 78.0925 172.068 78.4415C172.068 78.7905 171.93 79.1253 171.686 79.3721C171.442 79.6189 171.111 79.7575 170.765 79.7575Z" fill="#CCCCCC"/>
<path d="M170.765 92.7771H126.798C126.626 92.7773 126.457 92.7435 126.299 92.6775C126.14 92.6115 125.997 92.5146 125.875 92.3924C125.754 92.2701 125.658 92.125 125.592 91.9652C125.527 91.8053 125.493 91.634 125.493 91.461C125.493 91.288 125.527 91.1167 125.592 90.9569C125.658 90.7971 125.754 90.652 125.875 90.5297C125.997 90.4075 126.14 90.3106 126.299 90.2446C126.457 90.1786 126.626 90.1447 126.798 90.145H170.765C171.11 90.1456 171.441 90.2845 171.685 90.5312C171.929 90.778 172.066 91.1124 172.066 91.461C172.066 91.8097 171.929 92.1441 171.685 92.3908C171.441 92.6376 171.11 92.7765 170.765 92.7771Z" fill="#CCCCCC"/>
<path d="M170.765 105.797H126.798C126.626 105.797 126.457 105.764 126.299 105.698C126.14 105.631 125.997 105.535 125.875 105.412C125.754 105.29 125.658 105.145 125.592 104.985C125.527 104.825 125.493 104.654 125.493 104.481C125.493 104.308 125.527 104.137 125.592 103.977C125.658 103.817 125.754 103.672 125.875 103.55C125.997 103.428 126.14 103.331 126.299 103.265C126.457 103.199 126.626 103.165 126.798 103.165H170.765C171.11 103.166 171.441 103.305 171.685 103.551C171.929 103.798 172.066 104.132 172.066 104.481C172.066 104.83 171.929 105.164 171.685 105.411C171.441 105.658 171.11 105.797 170.765 105.797Z" fill="#CCCCCC"/>
<path d="M170.765 118.817H126.797C126.452 118.817 126.121 118.678 125.877 118.432C125.632 118.185 125.495 117.85 125.495 117.501C125.495 117.152 125.632 116.817 125.877 116.571C126.121 116.324 126.452 116.185 126.797 116.185H170.765C171.111 116.185 171.442 116.324 171.686 116.571C171.93 116.817 172.068 117.152 172.068 117.501C172.068 117.85 171.93 118.185 171.686 118.432C171.442 118.678 171.111 118.817 170.765 118.817Z" fill="#CCCCCC"/>
<path d="M170.765 131.837H126.798C126.626 131.837 126.457 131.804 126.299 131.738C126.14 131.672 125.997 131.575 125.875 131.452C125.754 131.33 125.658 131.185 125.592 131.025C125.527 130.865 125.493 130.694 125.493 130.521C125.493 130.348 125.527 130.177 125.592 130.017C125.658 129.857 125.754 129.712 125.875 129.59C125.997 129.468 126.14 129.371 126.299 129.305C126.457 129.239 126.626 129.205 126.798 129.205H170.765C171.11 129.206 171.441 129.345 171.685 129.591C171.929 129.838 172.066 130.172 172.066 130.521C172.066 130.87 171.929 131.204 171.685 131.451C171.441 131.698 171.11 131.837 170.765 131.837Z" fill="#CCCCCC"/>
<path d="M170.765 144.857H126.797C126.626 144.857 126.457 144.823 126.299 144.757C126.141 144.691 125.997 144.594 125.877 144.472C125.756 144.349 125.66 144.204 125.594 144.045C125.529 143.885 125.495 143.714 125.495 143.541C125.495 143.368 125.529 143.197 125.594 143.038C125.66 142.878 125.756 142.733 125.877 142.611C125.997 142.488 126.141 142.391 126.299 142.325C126.457 142.259 126.626 142.225 126.797 142.225H170.765C171.111 142.225 171.442 142.364 171.686 142.611C171.93 142.857 172.068 143.192 172.068 143.541C172.068 143.89 171.93 144.225 171.686 144.472C171.442 144.718 171.111 144.857 170.765 144.857Z" fill="#CCCCCC"/>
<path d="M131.046 30.8481H119.668C119.577 30.8481 119.49 30.8845 119.426 30.9493C119.362 31.014 119.326 31.1018 119.326 31.1934C119.326 31.2849 119.362 31.3727 119.426 31.4375C119.49 31.5022 119.577 31.5386 119.668 31.5386H125.015V42.8059C125.015 42.8975 125.051 42.9853 125.115 43.05C125.18 43.1148 125.266 43.1512 125.357 43.1512C125.448 43.1512 125.535 43.1148 125.599 43.05C125.663 42.9853 125.699 42.8975 125.699 42.8059V36.9425C125.699 35.5093 126.262 34.1348 127.265 33.1214C128.268 32.1079 129.628 31.5386 131.046 31.5386C131.137 31.5386 131.224 31.5022 131.288 31.4375C131.352 31.3727 131.388 31.2849 131.388 31.1934C131.388 31.1018 131.352 31.014 131.288 30.9493C131.224 30.8845 131.137 30.8481 131.046 30.8481Z" fill="#3F3D56"/>
<path d="M172.359 147.601C172.171 147.601 169.776 147.446 169.776 147.256L172.018 135.757C172.018 135.666 172.054 135.578 172.118 135.513C172.182 135.448 172.269 135.412 172.359 135.412C172.45 135.412 172.537 135.448 172.601 135.513C172.665 135.578 172.701 135.666 172.701 135.757V147.256C172.701 147.347 172.665 147.435 172.601 147.5C172.537 147.564 172.45 147.601 172.359 147.601Z" fill="#3F3D56"/>
<path d="M198.181 27.6924C198.181 25.5778 197.35 23.5498 195.87 22.0545C194.39 20.5593 192.383 19.7192 190.291 19.7192H101.984C105.554 19.7192 148.456 22.2687 175.788 25.4867C180.345 26.0226 184.62 27.9922 188.008 31.1171C191.397 34.2419 193.728 38.364 194.673 42.9006C202.708 81.5351 201.241 120.881 191.007 160.883C191.007 162.998 190.175 165.026 188.696 166.521C187.216 168.016 185.209 168.856 183.117 168.856H190.291C192.383 168.856 194.39 168.016 195.87 166.521C197.35 165.026 198.181 162.998 198.181 160.883C209.761 115.619 210.117 71.1958 198.181 27.6924Z" fill="#E6E6E6"/>
<path d="M194.851 164.922L194.189 164.749C205.871 119.088 205.875 74.3498 194.202 31.7763C192.986 29.5501 191.238 27.6675 189.117 26.3005C186.996 24.9335 184.569 24.1259 182.059 23.9514L147.055 21.4446L147.103 20.7559L182.108 23.2626C184.738 23.4456 187.281 24.2939 189.502 25.7295C191.723 27.1651 193.552 29.142 194.819 31.4784L194.849 31.5527C200.751 53.0538 203.722 75.2681 203.68 97.581C203.636 119.537 200.665 142.194 194.851 164.922Z" fill="white"/>
</g>
<defs>
<clipPath id="clip0_985_1259">
<rect width="207" height="195" fill="white"/>
</clipPath>
</defs>
</svg>
