<svg width="15" height="15" viewBox="0 0 15 15" fill="none" xmlns="http://www.w3.org/2000/svg">
<path fill-rule="evenodd" clip-rule="evenodd" d="M0.774461 4.89806C0.5 5.41862 0.5 6.01083 0.5 7.19526V10.8943C0.5 12.5392 0.5 13.3617 1.08579 13.8727C1.61733 14.3364 2.44285 14.3793 4 14.3833V10.022C4 8.86407 5.02806 8.1497 6 8.1497H9C9.97194 8.1497 11 8.86407 11 10.022V14.3833C12.5572 14.3793 13.3827 14.3364 13.9142 13.8727C14.5 13.3617 14.5 12.5392 14.5 10.8943V7.19526C14.5 6.01083 14.5 5.41862 14.2255 4.89806C13.9511 4.3775 13.4356 3.99209 12.4047 3.22127L11.4047 2.47355C9.54143 1.08031 8.60977 0.38369 7.5 0.38369C6.39023 0.38369 5.45857 1.08031 3.59525 2.47355L2.59525 3.22127C1.56437 3.99209 1.04892 4.3775 0.774461 4.89806ZM9 14.3837V10.1497H6V14.3837H9Z" fill="black"/>
</svg>
