<svg width="15" height="16" viewBox="0 0 15 16" fill="none" xmlns="http://www.w3.org/2000/svg">
<path d="M10.6113 1.38369L10.6113 3.71702M4.38911 1.38369L4.38911 3.71702" stroke="black" stroke-width="2" stroke-linecap="round"/>
<path fill-rule="evenodd" clip-rule="evenodd" d="M8.61111 2.16147H6.38889L6.38889 3.71702C6.38889 4.82159 5.49346 5.71702 4.38889 5.71702C3.28432 5.71702 2.38889 4.82159 2.38889 3.71702L2.38889 2.2809C1.86704 2.37509 1.48474 2.54356 1.18342 2.84489C0.5 3.5283 0.5 4.62825 0.5 6.82814V10.717C0.5 12.9169 0.5 14.0169 1.18342 14.7003C1.86683 15.3837 2.96678 15.3837 5.16667 15.3837H9.83333C12.0332 15.3837 13.1332 15.3837 13.8166 14.7003C14.5 14.0169 14.5 12.9169 14.5 10.717V10.717V6.82814V6.82813C14.5 4.62824 14.5 3.5283 13.8166 2.84489C13.5153 2.54356 13.133 2.37509 12.6111 2.2809L12.6111 3.71702C12.6111 4.82159 11.7157 5.71702 10.6111 5.71702C9.50654 5.71702 8.61111 4.82159 8.61111 3.71702L8.61111 2.16147ZM3.38889 8.38369C3.38889 7.83141 3.8366 7.38369 4.38889 7.38369L10.6111 7.38369C11.1634 7.38369 11.6111 7.83141 11.6111 8.38369C11.6111 8.93598 11.1634 9.38369 10.6111 9.38369L4.38889 9.38369C3.8366 9.38369 3.38889 8.93598 3.38889 8.38369ZM4.38889 10.4948C3.8366 10.4948 3.38889 10.9425 3.38889 11.4948C3.38889 12.0471 3.8366 12.4948 4.38889 12.4948L10.6111 12.4948C11.1634 12.4948 11.6111 12.0471 11.6111 11.4948C11.6111 10.9425 11.1634 10.4948 10.6111 10.4948L4.38889 10.4948Z" fill="black"/>
</svg>
