<svg width="15" height="15" viewBox="0 0 15 15" fill="none" xmlns="http://www.w3.org/2000/svg">
<path fill-rule="evenodd" clip-rule="evenodd" d="M2.25315 6.32292C2.25 6.64399 2.25 6.996 2.25 7.3837C2.25 9.49039 2.25 10.5437 2.75559 11.3004C2.97447 11.628 3.25572 11.9092 3.58329 12.1281C4.33996 12.6337 5.39331 12.6337 7.5 12.6337C9.60669 12.6337 10.66 12.6337 11.4167 12.1281C11.7443 11.9092 12.0255 11.628 12.2444 11.3004C12.75 10.5437 12.75 9.49039 12.75 7.3837C12.75 6.99601 12.75 6.644 12.7468 6.32294C12.6921 7.24012 11.9309 7.96703 11 7.96703H10.606C10.5564 7.96703 10.5316 7.96703 10.5091 7.96804C10.112 7.98591 9.76313 8.23735 9.62058 8.60848C9.61252 8.62947 9.60468 8.65299 9.589 8.70004L9.54167 8.84203C9.48071 9.02489 9.45024 9.11632 9.40854 9.1933C9.26324 9.46155 9.00344 9.6488 8.70301 9.70182C8.61679 9.71703 8.52042 9.71703 8.32767 9.71703H6.67233C6.47958 9.71703 6.38321 9.71703 6.29699 9.70182C5.99656 9.6488 5.73676 9.46155 5.59146 9.1933C5.54976 9.11632 5.51929 9.02489 5.45833 8.84203L5.411 8.70004C5.39532 8.65299 5.38748 8.62947 5.37942 8.60848C5.23687 8.23735 4.88802 7.98591 4.49086 7.96804C4.4684 7.96703 4.4436 7.96703 4.39401 7.96703H4C3.06906 7.96703 2.30789 7.24012 2.25315 6.32292Z" fill="black"/>
<path d="M2.25 6.1337C2.25 4.24808 2.25 3.30527 2.83579 2.71948C3.42157 2.1337 4.36438 2.1337 6.25 2.1337H8.75C10.6356 2.1337 11.5784 2.1337 12.1642 2.71948C12.75 3.30527 12.75 4.24808 12.75 6.1337V8.6337C12.75 10.5193 12.75 11.4621 12.1642 12.0479C11.5784 12.6337 10.6356 12.6337 8.75 12.6337H6.25C4.36438 12.6337 3.42157 12.6337 2.83579 12.0479C2.25 11.4621 2.25 10.5193 2.25 8.6337V6.1337Z" stroke="black" stroke-width="2"/>
</svg>
