<svg width="24" height="24" viewBox="0 0 24 24" fill="none" xmlns="http://www.w3.org/2000/svg">
<path fill-rule="evenodd" clip-rule="evenodd" d="M22 11.5C22 16.4706 17.9706 20.5 13 20.5C8.02944 20.5 4 16.4706 4 11.5C4 6.52944 8.02944 2.5 13 2.5C17.9706 2.5 22 6.52944 22 11.5ZM16.7071 15.2071C16.3166 15.5976 15.6834 15.5976 15.2929 15.2071L13 12.9142L10.7071 15.2071C10.3166 15.5976 9.68342 15.5976 9.29289 15.2071C8.90237 14.8166 8.90237 14.1834 9.29289 13.7929L11.5858 11.5L9.29289 9.20711C8.90237 8.81659 8.90237 8.18342 9.29289 7.7929C9.68342 7.40238 10.3166 7.40238 10.7071 7.7929L13 10.0858L15.2929 7.7929C15.6834 7.40238 16.3166 7.40238 16.7071 7.7929C17.0976 8.18342 17.0976 8.81659 16.7071 9.20711L14.4142 11.5L16.7071 13.7929C17.0976 14.1834 17.0976 14.8166 16.7071 15.2071Z" fill="#C4C4C4"/>
</svg>
