<svg width="22" height="14" viewBox="0 0 22 14" fill="none" xmlns="http://www.w3.org/2000/svg">
<path fill-rule="evenodd" clip-rule="evenodd" d="M21.0344 7C21.0344 6.64584 20.8407 6.40663 20.4532 5.92822C18.8941 4.00317 15.2486 0.158707 11 0.158707C6.75144 0.158707 3.10591 4.00317 1.54678 5.92822C1.15931 6.40663 0.965576 6.64584 0.965576 7C0.965576 7.35416 1.15931 7.59337 1.54678 8.07177C3.10591 9.99683 6.75144 13.8413 11 13.8413C15.2486 13.8413 18.8941 9.99683 20.4532 8.07177C20.8407 7.59337 21.0344 7.35416 21.0344 7ZM11 10.4206C12.8892 10.4206 14.4206 8.88917 14.4206 7C14.4206 5.11083 12.8892 3.57935 11 3.57935C9.11083 3.57935 7.57936 5.11083 7.57936 7C7.57936 8.88917 9.11083 10.4206 11 10.4206Z" fill="#C4C4C4"/>
</svg>
