<svg width="29" height="29" viewBox="0 0 29 29" fill="none" xmlns="http://www.w3.org/2000/svg">
<rect width="29" height="29" rx="14.5" fill="#1A9A18"/>
<path d="M18.1113 8L18.1113 10.3333M11.8891 8L11.8891 10.3333" stroke="white" stroke-width="2" stroke-linecap="round"/>
<path fill-rule="evenodd" clip-rule="evenodd" d="M16.1111 8.77779H13.8889L13.8889 10.3333C13.8889 11.4379 12.9935 12.3333 11.8889 12.3333C10.7843 12.3333 9.88889 11.4379 9.88889 10.3333L9.88889 8.89722C9.36704 8.99141 8.98474 9.15988 8.68342 9.4612C8 10.1446 8 11.2446 8 13.4445V17.3333C8 19.5332 8 20.6332 8.68342 21.3166C9.36683 22 10.4668 22 12.6667 22H17.3333C19.5332 22 20.6332 22 21.3166 21.3166C22 20.6332 22 19.5332 22 17.3334V17.3333V13.4445V13.4444C22 11.2446 22 10.1446 21.3166 9.4612C21.0153 9.15988 20.633 8.99141 20.1111 8.89722L20.1111 10.3333C20.1111 11.4379 19.2157 12.3333 18.1111 12.3333C17.0065 12.3333 16.1111 11.4379 16.1111 10.3333L16.1111 8.77779ZM10.8889 15C10.8889 14.4477 11.3366 14 11.8889 14L18.1111 14C18.6634 14 19.1111 14.4477 19.1111 15C19.1111 15.5523 18.6634 16 18.1111 16L11.8889 16C11.3366 16 10.8889 15.5523 10.8889 15ZM11.8889 17.1111C11.3366 17.1111 10.8889 17.5588 10.8889 18.1111C10.8889 18.6634 11.3366 19.1111 11.8889 19.1111L18.1111 19.1111C18.6634 19.1111 19.1111 18.6634 19.1111 18.1111C19.1111 17.5588 18.6634 17.1111 18.1111 17.1111L11.8889 17.1111Z" fill="white"/>
</svg>
